<?xml version="1.0" encoding="UTF-8" standalone="no"?>
<!-- Created with Inkscape (http://www.inkscape.org/) -->

<svg
   xmlns:dc="http://purl.org/dc/elements/1.1/"
   xmlns:cc="http://creativecommons.org/ns#"
   xmlns:rdf="http://www.w3.org/1999/02/22-rdf-syntax-ns#"
   xmlns:svg="http://www.w3.org/2000/svg"
   xmlns="http://www.w3.org/2000/svg"
   xmlns:sodipodi="http://sodipodi.sourceforge.net/DTD/sodipodi-0.dtd"
   xmlns:inkscape="http://www.inkscape.org/namespaces/inkscape"
   version="1.1"
   id="svg2"
   xml:space="preserve"
   width="816"
   height="1056"
   viewBox="0 0 816 1056"
   sodipodi:docname="logo-manif.svg"
   inkscape:version="0.92.3 (2405546, 2018-03-11)"
   inkscape:export-filename="/home/olivier/labo/perso/sit-quizz/src/assets/logo-mani.png"
   inkscape:export-xdpi="72"
   inkscape:export-ydpi="72"><metadata
     id="metadata8"><rdf:RDF><cc:Work
         rdf:about=""><dc:format>image/svg+xml</dc:format><dc:type
           rdf:resource="http://purl.org/dc/dcmitype/StillImage" /><dc:title /></cc:Work></rdf:RDF></metadata><defs
     id="defs6"><clipPath
       clipPathUnits="userSpaceOnUse"
       id="clipPath18"><path
         d="M 0,792 H 612 V 0 H 0 Z"
         id="path16"
         inkscape:connector-curvature="0" /></clipPath><clipPath
       clipPathUnits="userSpaceOnUse"
       id="clipPath26"><path
         d="M -114.472,693.447 H 727.4 V 98.3333 h -841.872 z"
         id="path24"
         inkscape:connector-curvature="0" /></clipPath></defs><sodipodi:namedview
     pagecolor="#ffffff"
     bordercolor="#666666"
     borderopacity="1"
     objecttolerance="10"
     gridtolerance="10"
     guidetolerance="10"
     inkscape:pageopacity="0"
     inkscape:pageshadow="2"
     inkscape:window-width="1600"
     inkscape:window-height="795"
     id="namedview4"
     showgrid="false"
     inkscape:zoom="1.7878788"
     inkscape:cx="332.1684"
     inkscape:cy="387.80182"
     inkscape:window-x="0"
     inkscape:window-y="27"
     inkscape:window-maximized="1"
     inkscape:current-layer="g134" /><g
     id="g10"
     inkscape:groupmode="layer"
     inkscape:label="main grève vecto (1)"
     transform="matrix(1.3333333,0,0,-1.3333333,0,1056)"><g
       id="g12"><g
         id="g22" /><g
         id="g134"><path
           d="m 308.375,183.457 c 0,-1.033 0.02,-2.067 -0.006,-3.101 -0.022,-0.893 0.365,-1.313 1.271,-1.304 1.748,0.018 3.497,0.027 5.246,0.006 0.953,-0.012 1.233,0.508 1.23,1.349 -0.009,1.988 -0.011,3.975 0.004,5.962 0.007,0.882 -0.373,1.311 -1.278,1.3 -1.51,-0.018 -3.022,0.022 -4.531,-0.004 -1.896,-0.033 -1.899,-0.052 -1.936,-2.062 -0.013,-0.715 -0.002,-1.431 0,-2.146 m -64.415,-0.242 c 0,1.183 -0.015,2.138 0.005,3.093 0.017,0.843 -0.257,1.373 -1.207,1.365 -1.83,-0.015 -3.66,-0.009 -5.49,-0.001 -0.791,0.003 -1.163,-0.394 -1.168,-1.165 -0.008,-1.274 -0.017,-2.546 -0.02,-3.82 -0.007,-4.219 -0.258,-3.596 3.514,-3.619 1.336,-0.007 2.986,-0.555 3.937,0.279 1.096,0.963 0.209,2.712 0.429,3.868 m 152.745,15.429 c 0,2.716 0.071,5.436 -0.026,8.15 -0.063,1.719 0.834,3.943 -0.472,5.027 -1.224,1.017 -3.385,0.227 -5.129,0.33 -0.08,0.005 -0.16,-0.003 -0.24,-0.002 -0.694,0.008 -1.225,-0.162 -1.427,-0.957 -0.586,-2.304 -2.439,-2.965 -4.476,-3.397 -0.993,-0.21 -2.31,0.379 -2.93,-0.538 -0.61,-0.904 -0.162,-2.179 -0.227,-3.289 -0.013,-0.239 0.01,-0.48 0.006,-0.719 -0.013,-0.798 0.383,-1.152 1.173,-1.146 1.279,0.01 2.558,0.013 3.836,-0.017 1.854,-0.044 1.899,-0.058 1.912,-1.885 0.028,-4.075 0.017,-8.15 0.006,-12.226 -0.009,-3.488 0.282,-3.167 -3.269,-3.19 -4.243,-0.027 -3.615,0.467 -3.655,-3.719 -0.018,-1.963 0.031,-1.998 1.991,-2.005 5.594,-0.019 11.188,-0.01 16.782,-0.005 3.155,0.002 3.157,0.008 3.044,3.21 -0.014,0.398 -0.096,0.797 -0.082,1.195 0.039,1.075 -0.558,1.364 -1.506,1.335 -1.038,-0.031 -2.078,-0.019 -3.117,-0.006 -2.145,0.027 -2.174,0.033 -2.186,2.106 -0.022,3.915 -0.006,7.832 -0.008,11.748 m -202.56,-0.123 c 0,3.919 0.018,7.838 -0.008,11.757 -0.012,1.815 -0.052,1.829 -1.913,1.865 -1.279,0.024 -2.559,-0.021 -3.839,0.002 -0.802,0.015 -1.344,-0.183 -1.586,-1.073 -0.626,-2.296 -2.513,-2.902 -4.561,-3.291 -0.924,-0.175 -2.105,0.33 -2.734,-0.456 -0.652,-0.817 -0.217,-2.003 -0.287,-3.025 -0.022,-0.319 0.016,-0.64 0.002,-0.959 -0.041,-0.935 0.442,-1.267 1.323,-1.25 1.28,0.024 2.561,0.027 3.839,-0.01 1.681,-0.048 1.738,-0.075 1.752,-1.794 0.034,-4.079 0.01,-8.158 0.015,-12.237 0.006,-3.591 0.246,-3.208 -3.201,-3.261 -4.221,-0.064 -3.697,0.7 -3.718,-3.898 -0.009,-1.79 0.05,-1.824 1.928,-1.83 5.279,-0.018 10.558,-0.028 15.837,-0.002 5.13,0.023 3.631,-0.582 4.048,4.332 0.087,1.017 -0.423,1.443 -1.435,1.409 -1.118,-0.038 -2.239,-0.021 -3.358,0 -2.065,0.038 -2.088,0.046 -2.098,2.203 -0.018,3.84 -0.005,7.679 -0.006,11.518 m 139.723,-12.909 c 0.111,0.875 0.847,1.152 1.376,1.588 2.227,1.834 4.322,3.804 6.213,5.983 1.532,1.765 2.804,3.701 3.476,5.964 1.679,5.663 -0.079,12.283 -8.091,13.492 -4,0.603 -7.801,-0.041 -11.578,-1.169 -1.762,-0.526 -1.759,-0.603 -1.796,-2.57 -0.02,-1.039 -0.021,-2.079 0,-3.118 0.044,-2.245 0.165,-2.317 2.052,-1.25 1.975,1.117 4.039,1.889 6.357,1.876 4.103,-0.023 6.118,-2.684 5.028,-6.665 -0.59,-2.154 -1.92,-3.848 -3.36,-5.465 -2.827,-3.175 -6.024,-5.958 -9.358,-8.578 -1.028,-0.806 -1.677,-1.648 -1.491,-3.012 0.076,-0.548 10e-4,-1.118 0.013,-1.677 0.038,-1.917 0.041,-1.947 2.048,-1.952 5.997,-0.016 11.996,-0.057 17.993,0.009 4.807,0.053 4.205,-1.082 4.272,4.595 0.015,1.277 -0.573,1.642 -1.768,1.621 -3.038,-0.054 -6.078,-0.037 -9.116,-0.003 -0.755,0.008 -1.589,-0.278 -2.27,0.331 m -106.379,16.803 h -0.009 c 0,2.636 0.031,5.272 -0.01,7.908 -0.027,1.703 -0.113,1.773 -1.759,1.816 -1.516,0.039 -3.041,-0.072 -4.551,0.033 -1.431,0.097 -2.352,-0.44 -3.199,-1.588 -3.649,-4.949 -7.211,-9.981 -11.156,-14.688 -2.125,-2.535 -1.995,-5.214 -1.92,-8.064 0.021,-0.799 0.5,-1.11 1.256,-1.1 0.559,0.009 1.118,-0.003 1.677,-0.004 3.196,0 6.391,0.016 9.586,-0.007 2.054,-0.015 2.059,-0.04 2.079,-2.174 0.014,-1.358 0.028,-2.717 0.002,-4.074 -0.018,-0.983 0.35,-1.461 1.401,-1.433 1.756,0.048 3.514,0.025 5.272,0.01 0.904,-0.008 1.313,0.427 1.313,1.308 0.001,1.438 -0.006,2.876 0.019,4.314 0.035,1.991 0.047,2.051 1.987,2.042 2.408,-0.011 2.518,-0.169 2.485,2.502 -0.002,0.16 0,0.319 0,0.479 0.008,3.044 0.011,3.094 -2.937,3.234 -1.129,0.053 -1.564,0.466 -1.548,1.577 0.037,2.636 0.012,5.272 0.012,7.909 m 59.458,-3.2 c 0.082,4.313 2.854,7.137 7.236,7.485 1.774,0.142 3.516,-0.085 5.204,-0.638 0.931,-0.305 1.359,-0.046 1.349,0.951 -0.014,1.359 -0.007,2.719 0.008,4.079 0.009,0.836 -0.276,1.342 -1.205,1.438 -1.829,0.19 -3.643,0.481 -5.496,0.371 -8.472,-0.498 -13.651,-4.956 -15.248,-13.262 -0.685,-3.563 -0.707,-7.165 -0.065,-10.742 0.458,-2.552 1.41,-4.902 3.201,-6.862 2.858,-3.128 6.538,-3.767 10.516,-3.555 5.727,0.306 9.832,3.765 10.864,9.376 0.59,3.212 0.389,6.397 -1.507,9.237 -2.448,3.668 -7.378,5.034 -12.009,3.342 -0.951,-0.348 -1.865,-0.796 -2.848,-1.22 m 123.714,-13.43 c 0,-2.108 0.073,-3.698 -0.023,-5.277 -0.077,-1.256 0.504,-1.739 1.628,-1.845 3.356,-0.317 6.705,-0.45 9.988,0.533 3.958,1.186 7.017,3.58 8.73,7.325 2.812,6.14 3.011,12.545 0.969,18.931 -1.17,3.657 -3.815,6.045 -7.604,6.983 -2.52,0.623 -5.058,0.638 -7.598,0.018 -7.57,-1.849 -11.433,-11.585 -7.174,-18.111 2.481,-3.802 7.813,-5.255 12.392,-3.412 0.792,0.319 1.469,0.979 2.386,0.909 0.373,-0.35 0.282,-0.752 0.204,-1.138 -0.705,-3.461 -3.426,-5.797 -7.121,-6.026 -2.151,-0.134 -4.303,-0.11 -6.777,1.11 m -35.125,9.823 c 0.098,3.466 -0.198,7.036 -1.565,10.429 -1.262,3.132 -3.432,5.385 -6.756,6.281 -2.086,0.563 -4.217,0.72 -6.404,0.469 -5.264,-0.603 -8.404,-3.591 -9.712,-8.561 -1.45,-5.502 -1.43,-11.086 -0.132,-16.597 1.502,-6.377 5.308,-9.208 11.883,-9.189 0.638,0.002 1.279,0.014 1.914,0.077 4.656,0.458 7.872,2.783 9.438,7.272 1.094,3.137 1.392,6.375 1.334,9.819 m -101.3,-0.143 c 0.107,2.717 -0.11,5.411 -0.742,8.071 -1.643,6.915 -6.26,10.011 -13.717,9.237 -5.603,-0.582 -8.59,-3.321 -10.02,-8.777 -1.277,-4.87 -1.17,-9.808 -0.432,-14.737 1.123,-7.514 5.372,-11.023 12.966,-10.806 0.08,0.003 0.16,0.006 0.24,0.009 5.709,0.214 9.203,2.943 10.763,8.464 0.787,2.785 1.068,5.638 0.942,8.539 m -11.081,81.825 c 5.609,-0.494 12.167,-0.259 18.721,-0.323 3.683,-0.037 3.355,0.517 3.361,-3.299 0.018,-11.518 0.005,-23.035 0.016,-34.554 0.002,-2.112 0.03,-2.112 2.09,-2.152 7.914,-0.153 15.827,-0.3 23.741,-0.463 4.236,-0.087 8.473,-0.219 12.709,-0.299 2.215,-0.041 2.222,-0.011 2.244,2.278 0.025,2.638 0.047,5.278 0.057,7.917 0.035,9.117 0.061,18.234 0.098,27.351 0.009,2.142 0.022,2.162 2.06,2.236 2.875,0.107 5.751,0.209 8.627,0.258 11.595,0.196 23.188,0.37 34.783,0.556 2.542,0.041 2.538,0.047 2.545,2.69 0.005,2.399 -0.04,4.798 0.04,7.194 0.36,10.793 0.258,21.59 0.368,32.386 0.025,2.338 0.007,2.354 -2.389,2.307 -4.635,-0.092 -9.269,-0.216 -13.904,-0.302 -8.153,-0.151 -16.306,-0.3 -24.461,-0.414 -1.999,-0.027 -2.057,0.038 -2.006,1.989 0.092,3.517 0.281,7.031 0.392,10.546 0.377,11.909 0.733,23.817 1.109,35.725 0.079,2.477 0.236,4.951 0.303,7.428 0.038,1.381 0.581,2.139 2.001,2.519 3.55,0.949 7.091,1.963 10.572,3.136 6.881,2.317 13.986,3.965 20.557,7.218 7.879,3.899 15.751,7.699 22.896,12.975 7.307,5.397 14.179,11.207 20.009,18.143 5.287,6.291 10.66,12.524 14.607,19.853 3.747,6.957 7.97,13.629 10.721,21.124 2.485,6.764 4.889,13.572 6.443,20.567 1.343,6.048 1.746,12.329 2.246,18.534 0.531,6.608 0.77,13.245 -0.046,19.868 -0.401,3.249 -0.457,6.562 -1.117,9.753 -1.327,6.411 -3.01,12.732 -5.071,18.969 -2.674,8.09 -6.18,15.789 -10.412,23.131 -5.721,9.929 -12.448,19.159 -20.524,27.344 -3.813,3.865 -7.538,7.819 -12.126,10.845 -2.865,1.89 -5.501,4.127 -8.342,6.058 -4.83,3.281 -9.763,6.46 -15.102,8.817 -11.866,5.238 -24.055,9.557 -36.962,11.456 -7.026,1.034 -14.022,2.331 -21.188,2.183 -6.703,-0.138 -13.423,0.395 -20.07,-1.044 -6.308,-1.365 -12.785,-1.871 -18.9,-4.217 -7.669,-2.941 -15.548,-5.317 -23.053,-8.708 -9.164,-4.141 -17.623,-9.397 -25.287,-15.89 -6.469,-5.48 -12.627,-11.285 -17.713,-18.131 -1.236,-1.665 -2.582,-3.248 -3.882,-4.866 -4.772,-5.938 -8.832,-12.339 -12.155,-19.183 -2.129,-4.385 -3.738,-9.002 -5.583,-13.513 -3.933,-9.62 -6.353,-19.629 -7.484,-29.903 -1.068,-9.694 -1.56,-19.449 -0.283,-29.188 0.446,-3.404 0.47,-6.871 1.321,-10.212 1.796,-7.044 3.521,-14.111 6.202,-20.896 1.556,-3.94 2.774,-8.043 4.664,-11.813 2.719,-5.424 5.736,-10.728 9.201,-15.718 2.181,-3.141 4.868,-5.927 7.255,-8.929 5.149,-6.476 11.044,-12.297 17.302,-17.594 7.235,-6.124 14.827,-11.893 23.326,-16.342 7.376,-3.86 14.772,-7.621 22.672,-10.309 2.116,-0.72 4.189,-1.569 6.308,-2.282 1.646,-0.554 2.392,-1.519 2.418,-3.351 0.082,-5.755 0.317,-11.509 0.519,-17.262 0.416,-11.906 0.854,-23.811 1.271,-35.718 0.08,-2.289 0.054,-2.32 -2.127,-2.307 -9.757,0.057 -19.514,0.141 -29.272,0.194 -3.039,0.017 -6.078,-0.009 -9.117,-0.06 -1.901,-0.034 -1.807,-0.095 -2.232,-1.855 -0.469,-1.936 0.146,-3.802 0.152,-5.703 0.026,-7.434 0.068,-14.867 0.317,-22.299 0.139,-4.155 0.049,-8.317 0.101,-12.476 0.022,-1.786 0.134,-1.86 1.933,-1.961 0.478,-0.027 0.959,-0.011 1.439,-0.011 6.717,-10e-4 13.434,-10e-4 21.091,-10e-4 m 44.818,-167.886 c -10.847,-0.145 -20.494,0.409 -30.106,1.365 -12.887,1.279 -25.631,3.463 -38.239,6.459 -14.886,3.536 -29.391,8.259 -43.489,14.161 -15.81,6.619 -30.935,14.579 -45.297,23.97 -12.8,8.37 -24.911,17.619 -36.23,27.912 -15.192,13.814 -28.807,29.014 -40.716,45.753 -8.173,11.489 -15.409,23.524 -21.825,36.076 -9.431,18.448 -16.59,37.742 -21.716,57.793 -3.049,11.93 -5.274,24.023 -6.641,36.274 -0.823,7.383 -1.317,14.776 -1.667,22.195 -0.278,5.918 -0.286,11.831 -0.175,17.739 0.182,9.651 0.919,19.267 2.06,28.867 1.424,11.995 3.699,23.818 6.629,35.509 1.9,7.581 4.25,15.044 6.8,22.448 3.597,10.441 7.784,20.64 12.651,30.526 9.274,18.836 20.342,36.565 33.568,52.922 5.781,7.149 11.832,14.037 18.216,20.654 5.72,5.93 11.56,11.74 17.8,17.1 14.581,12.528 30.1,23.751 46.879,33.209 10.253,5.78 20.774,10.986 31.631,15.505 12.117,5.043 24.544,9.211 37.247,12.5 6.028,1.56 12.131,2.841 18.237,4.1 8.377,1.727 16.85,2.751 25.33,3.641 5.464,0.574 10.964,0.968 16.475,1.124 5.517,0.155 11.033,0.207 16.548,0.161 4.552,-0.037 9.101,-0.269 13.65,-0.438 3.832,-0.142 7.674,-0.407 11.443,-0.879 5.139,-0.643 10.293,-1.287 15.415,-2.118 12.795,-2.077 25.415,-4.922 37.81,-8.703 12.472,-3.805 24.657,-8.398 36.488,-13.909 12.627,-5.881 24.796,-12.57 36.476,-20.176 12.617,-8.216 24.449,-17.442 35.6,-27.521 16.85,-15.229 31.621,-32.312 44.371,-51.103 6.33,-9.329 12.046,-19.036 17.233,-29.068 7.292,-14.101 13.334,-28.705 18.157,-43.808 3.92,-12.273 6.957,-24.771 9.134,-37.482 1.133,-6.618 2.004,-13.269 2.738,-19.931 0.48,-4.357 0.723,-8.741 1.483,-13.069 0.029,-0.156 0.038,-0.322 0.017,-0.478 -0.82,-5.973 -0.041,-11.962 -0.172,-17.945 -0.146,-6.708 -0.174,-13.421 -0.58,-20.117 -0.206,-3.403 -0.773,-6.783 -1.169,-10.175 -0.578,-4.96 -1.085,-9.928 -1.752,-14.876 -0.315,-2.343 -0.896,-4.654 -1.421,-6.966 -0.578,-2.544 -0.617,-5.158 -1.144,-7.715 -0.66,-3.198 -1.403,-6.371 -2.379,-9.478 -4.239,-13.485 -8.413,-27 -14.061,-39.985 -5.392,-12.402 -11.618,-24.382 -18.572,-35.984 -1.151,-1.92 -2.468,-3.737 -3.734,-5.566 -1.276,-1.84 -2.101,-3.901 -3.409,-5.73 -2.168,-3.027 -4.366,-6.041 -6.451,-9.127 -2.685,-3.976 -6.246,-7.245 -8.939,-11.197 -0.91,-1.334 -2.369,-2.294 -2.639,-4.13 -0.09,-0.614 -1.137,-1.048 -1.651,-1.645 -3.555,-4.126 -7.512,-7.877 -11.005,-12.071 -2.225,-2.671 -4.882,-4.997 -7.45,-7.364 -4.035,-3.719 -8.076,-7.436 -12.345,-10.892 -6.273,-5.077 -12.603,-10.083 -19.157,-14.789 -6.222,-4.468 -12.514,-8.842 -18.865,-13.123 -3.038,-2.048 -6.381,-3.6 -9.638,-5.294 -4.391,-2.286 -8.878,-4.351 -13.331,-6.499 -15.447,-7.454 -31.394,-13.552 -47.924,-18.137 -13.649,-3.786 -27.486,-6.578 -41.547,-8.292 -8.246,-1.005 -16.504,-1.683 -24.811,-1.978 -3.673,-0.13 -7.345,-0.091 -9.839,-0.205"
           style="fill:#cb0011;fill-opacity:1;fill-rule:nonzero;stroke:none"
           id="path32"
           inkscape:connector-curvature="0" /><path
           d="m 277.6299,418.9175 c 0.465,0.537 0.426,0.947 0.374,1.336 -0.782,5.85 -1.647,11.688 -2.335,17.548 -0.391,3.321 -1.369,6.205 -3.533,8.911 -3.688,4.609 -7.151,9.431 -9.591,14.871 -1.801,4.015 -3.585,8.103 -4.385,12.402 -1.37,7.364 -2.01,14.862 -2.417,22.332 -0.227,4.153 -1.347,7.624 -4.066,10.671 -0.913,1.023 -1.659,2.19 -1.934,3.541 -0.885,4.349 -0.643,8.501 1.705,12.488 1.977,3.358 4.526,6.155 7.244,8.881 2.213,2.219 4.76,3.112 7.82,2.65 0.473,-0.071 0.936,-0.2 1.408,-0.282 0.787,-0.136 1.382,-0.047 1.564,0.948 0.141,0.777 0.462,1.529 0.767,2.266 1.533,3.708 3.978,6.686 7.304,8.923 2.717,1.826 5.659,2.973 9.004,2.739 1.451,-0.102 2.357,0.518 3.016,1.813 1.607,3.151 3.617,5.945 6.54,8.113 3.446,2.555 7.057,4.322 11.457,4.039 1.515,-0.098 3.04,-0.065 4.55,-0.211 1.375,-0.132 2.367,0.307 3.388,1.271 3.835,3.619 8.226,5.507 13.698,4.533 3.944,-0.702 6.921,-2.781 9.452,-5.641 2.697,-3.049 5.284,-6.196 7.857,-9.351 0.809,-0.993 1.753,-1.503 2.989,-1.769 3.273,-0.702 6.529,-1.449 9.737,-2.462 3.45,-1.09 4.976,-3.578 5.663,-6.78 1.624,-7.57 3.121,-15.166 4.742,-22.736 1.005,-4.698 1.735,-9.394 1.559,-14.236 -0.169,-4.634 -0.03,-9.278 -0.036,-13.918 -0.001,-0.633 0.075,-1.262 -0.143,-1.896 -1.671,-4.877 -4.044,-9.416 -7.094,-13.534 -6.996,-9.439 -14.865,-18.162 -22.581,-27.007 -1.621,-1.858 -3.587,-3.505 -4.687,-5.72 -1.896,-3.817 -3.09,-7.858 -2.956,-12.216 0.091,-2.956 -0.027,-5.919 10e-4,-8.878 0.021,-2.078 0.14,-4.156 0.194,-6.233 0.025,-0.918 0.393,-1.35 1.346,-1.084 0.385,0.108 0.77,0.214 1.152,0.329 8.2,2.474 16.223,5.379 23.449,10.094 6.01,3.922 12.36,7.378 17.424,12.63 3.378,3.504 7.307,6.467 10.189,10.467 2.194,3.048 4.859,5.819 6.659,9.076 5.071,9.179 9.123,18.785 11.695,29.028 1.748,6.96 2.673,13.902 2.551,21.078 -0.077,4.549 0.22,9.085 -0.64,13.603 -0.762,4.001 -0.683,8.209 -2.022,12.039 -2.814,8.056 -5.209,16.313 -9.741,23.672 -1.718,2.79 -2.996,5.871 -5.09,8.403 -5.656,6.84 -11.481,13.496 -18.454,19.109 -7.589,6.107 -15.512,11.563 -24.798,14.74 -5.659,1.937 -11.188,4.337 -17.22,5.03 -2.061,0.236 -4.106,0.627 -6.161,0.932 -4.977,0.737 -9.928,1.65 -15.017,1.136 -4.45,-0.45 -8.928,-0.627 -13.379,-1.068 -2.136,-0.212 -4.302,-0.286 -6.392,-0.94 -2.745,-0.859 -5.497,-1.723 -8.294,-2.384 -7.874,-1.859 -14.966,-5.48 -21.871,-9.532 -3.667,-2.152 -6.883,-4.939 -10.286,-7.461 -7.199,-5.335 -13.184,-11.844 -18.438,-19.064 -6.313,-8.677 -10.813,-18.267 -14.364,-28.341 -1.277,-3.622 -2.583,-7.288 -2.873,-11.106 -0.578,-7.615 -1.464,-15.194 -0.675,-22.911 0.824,-8.057 1.858,-16.009 4.253,-23.768 5.357,-17.355 14.866,-31.934 28.931,-43.477 2.717,-2.23 5.28,-4.678 8.284,-6.528 4.221,-2.6 8.49,-5.124 12.793,-7.586 3.363,-1.923 7.214,-2.366 10.714,-3.522 m 39.566,128.202 c 1.106,0.035 1.944,-0.652 2.848,-1.111 3.264,-1.659 6.646,-3.026 10.072,-4.301 1.905,-0.709 3.418,0.257 4.951,1.016 1.19,0.589 0.927,1.918 1.038,2.975 0.138,1.341 0.12,2.698 0.169,4.047 0.295,0.334 0.627,0.373 1.066,0.256 5.79,-1.533 11.465,-3.441 17.169,-5.256 1.188,-0.379 2.016,-1.035 2.456,-2.341 1.096,-3.248 2.379,-6.433 3.564,-9.652 0.524,-1.421 1.159,-2.829 1.458,-4.3 1.992,-9.776 3.316,-19.641 3.575,-29.624 0.041,-1.6 0.63,-3.214 0.273,-4.755 -0.79,-3.422 -1.712,-6.944 -3.814,-9.738 -3.546,-4.712 -7.089,-9.441 -10.917,-13.947 -6.56,-7.722 -12.995,-15.551 -19.452,-23.36 -0.741,-0.896 -1.441,-1.705 -2.72,-1.645 -3.656,0.171 -7.327,-0.208 -10.96,0.73 -1.565,0.405 -3.246,0.77 -4.952,0.432 4.294,-2.372 8.63,-4.567 12.966,-6.758 2.16,-1.092 2.313,-1.117 1.939,-3.462 -0.349,-2.185 -0.039,-4.297 0.141,-6.438 0.107,-1.274 0.383,-2.554 0.313,-3.817 -0.192,-3.46 0.66,-6.839 0.665,-10.281 0.002,-1.37 0.46,-1.607 1.815,-1.309 0.376,0.083 0.748,0.198 1.434,0.381 -1.139,1.972 -0.528,4.022 -0.552,6.045 -0.041,3.518 -0.066,7.039 0.006,10.556 0.125,6.094 1.483,11.71 5.669,16.503 6.379,7.304 12.517,14.819 18.799,22.208 3.512,4.131 7.016,8.259 9.671,13.02 2.075,3.723 3.814,7.527 3.372,11.983 -0.156,1.584 0.003,3.198 -0.03,4.796 -0.132,6.371 0.175,12.737 -1.353,19.054 -1.871,7.734 -3.287,15.579 -4.922,23.37 -0.54,2.574 -1.783,4.479 -4.532,5.299 -3.444,1.029 -6.928,1.945 -10.454,2.5 -2.305,0.364 -3.562,1.775 -4.569,3.386 -2.426,3.879 -5.547,7.13 -8.729,10.338 -3.073,3.099 -6.92,3.159 -10.895,2.497 -3.066,-0.511 -5.436,-2.276 -7.523,-4.401 -1.005,-1.023 -2.067,-1.406 -3.404,-1.323 -0.319,0.019 -0.636,0.108 -0.953,0.108 -5.291,-0.002 -10.269,-0.874 -14.427,-4.587 -2.271,-2.027 -4.527,-4.072 -5.701,-6.894 -1.108,-2.664 -1.038,-2.786 -3.859,-2.791 -5.434,-0.008 -9.475,-2.597 -12.694,-6.809 -1.563,-2.047 -2.596,-4.359 -3.755,-6.617 -0.815,-1.586 -0.834,-1.586 -2.528,-1.136 -2.957,0.785 -5.514,0.311 -8.027,-1.667 -3.819,-3.007 -6.44,-6.905 -8.378,-11.154 -1.371,-3.002 -1.664,-6.357 0.622,-9.499 0.701,-0.964 1.364,-2.121 2.031,-3.176 2.152,-3.404 2.384,-7.223 2.723,-11.035 0.367,-4.126 0.636,-8.262 1.057,-12.382 0.275,-2.687 0.91,-5.327 1.358,-7.989 0.36,-2.137 0.843,-4.25 1.638,-6.209 3.455,-8.507 7.308,-16.805 14.22,-23.209 0.367,-0.34 0.549,-0.775 0.611,-1.268 0.627,-4.972 1.196,-9.952 1.903,-14.913 0.459,-3.215 0.807,-6.451 1.585,-9.619 0.277,-1.129 0.671,-1.901 1.92,-1.593 0.745,1.471 0.66,2.995 0.644,4.51 -0.069,6.472 -0.816,12.892 -1.422,19.327 -0.283,3.008 -0.821,5.814 -2.684,8.255 -0.242,0.316 -0.434,0.671 -0.636,1.015 -2.926,5.011 -6.535,9.635 -8.416,15.236 -1.421,4.232 -2.932,8.429 -3.032,12.962 -0.051,2.313 -0.205,4.615 -0.387,6.922 -0.126,1.597 -0.533,3.263 -0.139,4.811 0.829,0.276 1.108,-0.228 1.363,-0.57 2.331,-3.123 5.529,-5.257 8.545,-7.605 0.818,-0.637 1.645,-0.931 2.659,-0.733 1.957,0.383 3.936,0.675 5.872,1.144 5.135,1.244 8.803,4.985 12.872,7.945 2.745,1.997 5.429,4.088 8.285,5.93 2.816,1.818 6.139,2.604 8.993,4.411 1.654,1.047 3.341,2.156 5.307,2.689 3.227,0.876 6.407,1.932 9.652,2.733 1.453,0.358 2.399,1.055 3.089,2.336 1.809,3.359 4.345,6.015 7.774,7.763 0.703,0.358 1.267,0.86 1.912,1.598 -2.591,1.78 -3.083,4.269 -2.892,7.017 0.021,0.316 -0.046,0.637 -0.063,0.956 -0.101,1.982 -0.084,2.09 -2.085,2.391 -2.575,0.388 -4.899,1.378 -7.184,2.536 -1.282,0.65 -2.534,1.394 -3.877,1.884 -2.426,0.884 -4.179,2.484 -5.714,4.506 -1.914,2.522 -3.548,5.091 -3.347,8.426 0.01,0.154 -0.055,0.313 -0.086,0.471 m -54.041,-269.829 c -7.657,0 -14.374,0 -21.091,10e-4 -0.48,0 -0.961,-0.016 -1.439,0.01 -1.799,0.102 -1.911,0.175 -1.933,1.961 -0.052,4.159 0.039,8.322 -0.101,12.477 -0.249,7.431 -0.291,14.865 -0.316,22.299 -0.007,1.901 -0.622,3.766 -0.153,5.703 0.425,1.759 0.331,1.821 2.233,1.854 3.038,0.052 6.077,0.077 9.116,0.061 9.758,-0.054 19.515,-0.138 29.272,-0.195 2.181,-0.012 2.207,0.019 2.127,2.308 -0.417,11.906 -0.855,23.812 -1.271,35.718 -0.201,5.753 -0.437,11.507 -0.519,17.262 -0.026,1.832 -0.772,2.796 -2.418,3.35 -2.118,0.714 -4.192,1.563 -6.308,2.282 -7.9,2.689 -15.296,6.45 -22.672,10.31 -8.499,4.448 -16.091,10.218 -23.326,16.342 -6.258,5.297 -12.153,11.117 -17.302,17.593 -2.387,3.003 -5.073,5.789 -7.255,8.929 -3.465,4.99 -6.482,10.295 -9.201,15.719 -1.889,3.769 -3.108,7.873 -4.664,11.812 -2.681,6.785 -4.406,13.853 -6.201,20.897 -0.852,3.341 -0.875,6.808 -1.322,10.211 -1.277,9.739 -0.784,19.494 0.283,29.188 1.131,10.275 3.551,20.284 7.484,29.904 1.845,4.511 3.454,9.128 5.583,13.512 3.324,6.845 7.383,13.246 12.155,19.184 1.3,1.617 2.646,3.201 3.882,4.865 5.086,6.846 11.244,12.652 17.713,18.132 7.664,6.492 16.123,11.748 25.287,15.889 7.505,3.392 15.384,5.768 23.053,8.709 6.115,2.345 12.592,2.852 18.9,4.217 6.647,1.438 13.367,0.905 20.07,1.043 7.166,0.148 14.163,-1.148 21.188,-2.182 12.907,-1.899 25.097,-6.218 36.962,-11.457 5.339,-2.357 10.272,-5.535 15.102,-8.817 2.841,-1.93 5.477,-4.168 8.342,-6.058 4.588,-3.025 8.313,-6.979 12.126,-10.844 8.076,-8.185 14.803,-17.416 20.525,-27.344 4.231,-7.342 7.737,-15.041 10.411,-23.132 2.061,-6.236 3.744,-12.558 5.071,-18.968 0.66,-3.191 0.716,-6.504 1.117,-9.754 0.817,-6.623 0.577,-13.26 0.046,-19.868 -0.5,-6.204 -0.903,-12.486 -2.246,-18.534 -1.554,-6.995 -3.958,-13.802 -6.442,-20.566 -2.752,-7.496 -6.975,-14.167 -10.722,-21.124 -3.946,-7.329 -9.319,-13.562 -14.607,-19.853 -5.83,-6.936 -12.702,-12.747 -20.009,-18.143 -7.145,-5.276 -15.017,-9.076 -22.896,-12.976 -6.571,-3.253 -13.676,-4.9 -20.556,-7.217 -3.482,-1.173 -7.023,-2.187 -10.573,-3.136 -1.42,-0.38 -1.963,-1.139 -2.001,-2.52 -0.067,-2.476 -0.224,-4.951 -0.302,-7.427 -0.376,-11.909 -0.733,-23.817 -1.11,-35.725 -0.111,-3.516 -0.3,-7.029 -0.391,-10.546 -0.052,-1.951 0.006,-2.017 2.005,-1.989 8.155,0.114 16.308,0.262 24.461,0.414 4.635,0.086 9.269,0.21 13.904,0.302 2.396,0.046 2.414,0.031 2.389,-2.307 -0.11,-10.796 -0.007,-21.594 -0.368,-32.387 -0.08,-2.395 -0.035,-4.795 -0.04,-7.193 -0.007,-2.644 -0.003,-2.65 -2.545,-2.691 -11.594,-0.185 -23.188,-0.359 -34.783,-0.555 -2.876,-0.049 -5.752,-0.152 -8.627,-0.258 -2.038,-0.074 -2.051,-0.095 -2.059,-2.236 -0.038,-9.118 -0.064,-18.235 -0.099,-27.352 -0.01,-2.639 -0.031,-5.278 -0.057,-7.917 -0.022,-2.288 -0.029,-2.318 -2.244,-2.277 -4.236,0.08 -8.473,0.212 -12.709,0.299 -7.913,0.163 -15.827,0.309 -23.741,0.462 -2.06,0.04 -2.088,0.04 -2.089,2.153 -0.012,11.518 0.001,23.036 -0.017,34.553 -0.006,3.817 0.322,3.262 -3.36,3.299 -6.555,0.065 -13.113,-0.171 -18.722,0.324"
           style="fill:#010000;fill-opacity:1;fill-rule:nonzero;stroke:none"
           id="path36"
           inkscape:connector-curvature="0" /><g
           id="g42"
           transform="translate(266.021,195.7979)"><path
             inkscape:connector-curvature="0"
             id="path40"
             style="fill:#010000;fill-opacity:1;fill-rule:nonzero;stroke:none"
             d="m 0,0 c 0,0.958 0.082,1.924 -0.017,2.87 -0.214,2.053 -0.265,4.149 -1.236,6.051 -0.684,1.338 -1.781,2.009 -3.276,1.993 -1.404,-0.016 -2.426,-0.685 -3.085,-1.913 -0.495,-0.923 -0.766,-1.92 -0.93,-2.949 -0.496,-3.088 -0.511,-6.203 -0.33,-9.307 0.102,-1.736 0.215,-3.509 0.855,-5.173 0.699,-1.821 1.835,-2.698 3.512,-2.714 1.712,-0.016 2.88,0.81 3.556,2.632 0.274,0.74 0.44,1.531 0.568,2.315 C -0.048,-4.146 0.122,-2.08 0,0 m 8.215,-0.333 c 0.126,-2.9 -0.155,-5.754 -0.942,-8.539 -1.56,-5.521 -5.054,-8.25 -10.763,-8.464 -0.08,-0.003 -0.16,-0.006 -0.24,-0.009 -7.594,-0.217 -11.843,3.292 -12.966,10.806 -0.738,4.93 -0.845,9.867 0.432,14.737 1.431,5.456 4.417,8.196 10.02,8.778 C 1.213,17.749 5.83,14.653 7.473,7.738 8.105,5.078 8.322,2.384 8.215,-0.333" /></g><g
           id="g46"
           transform="translate(367.3037,195.5801)"><path
             inkscape:connector-curvature="0"
             id="path44"
             style="fill:#010000;fill-opacity:1;fill-rule:nonzero;stroke:none"
             d="M 0,0 C 0,1.002 0.047,1.883 -0.01,2.756 -0.14,4.744 -0.276,6.742 -1.016,8.623 -1.621,10.162 -2.698,11.12 -4.438,11.137 -6.192,11.154 -7.266,10.165 -7.883,8.652 -8.21,7.85 -8.403,6.979 -8.553,6.119 -9.074,3.116 -9.037,0.078 -8.877,-2.945 c 0.097,-1.82 0.208,-3.677 0.916,-5.401 0.612,-1.49 1.56,-2.573 3.362,-2.577 1.75,-0.003 2.912,0.735 3.621,2.545 0.289,0.733 0.465,1.526 0.584,2.309 C -0.082,-4.019 0.149,-1.957 0,0 M 8.232,0.028 C 8.29,-3.416 7.992,-6.654 6.898,-9.791 5.332,-14.28 2.116,-16.605 -2.54,-17.063 c -0.635,-0.063 -1.275,-0.075 -1.914,-0.077 -6.574,-0.019 -10.381,2.812 -11.883,9.189 -1.298,5.511 -1.317,11.095 0.132,16.597 1.309,4.97 4.448,7.958 9.712,8.561 2.187,0.251 4.318,0.094 6.404,-0.469 C 3.235,15.842 5.405,13.589 6.667,10.457 8.034,7.064 8.33,3.494 8.232,0.028" /></g><g
           id="g50"
           transform="translate(425.0391,199.6963)"><path
             inkscape:connector-curvature="0"
             id="path48"
             style="fill:#010000;fill-opacity:1;fill-rule:nonzero;stroke:none"
             d="M 0,0 C 0.002,1.67 -0.241,3.475 -1.004,5.183 -1.72,6.786 -2.867,7.726 -4.709,7.664 -6.445,7.607 -7.482,6.794 -8.233,4.952 -8.731,3.732 -8.775,2.472 -8.747,1.191 -8.674,-2.216 -6.883,-3.933 -3.484,-3.859 -0.463,-3.794 0.061,-3.242 0,0 m -14.378,-13.911 c 2.474,-1.22 4.626,-1.244 6.776,-1.11 3.696,0.229 6.417,2.565 7.122,6.026 0.078,0.386 0.168,0.788 -0.204,1.138 -0.918,0.07 -1.594,-0.59 -2.386,-0.91 -4.579,-1.842 -9.911,-0.389 -12.392,3.413 -4.259,6.526 -0.396,16.262 7.174,18.111 2.54,0.62 5.078,0.604 7.598,-0.019 C 3.099,11.801 5.744,9.413 6.914,5.756 8.956,-0.63 8.757,-7.035 5.945,-13.175 4.231,-16.92 1.173,-19.314 -2.785,-20.5 c -3.283,-0.983 -6.632,-0.851 -9.988,-0.533 -1.124,0.105 -1.706,0.589 -1.628,1.845 0.096,1.579 0.023,3.168 0.023,5.277" /></g><g
           id="g54"
           transform="translate(295.3169,189.6689)"><path
             inkscape:connector-curvature="0"
             id="path52"
             style="fill:#010000;fill-opacity:1;fill-rule:nonzero;stroke:none"
             d="M 0,0 C 0.192,5.432 -3.49,6.315 -7.466,5.423 -8.082,5.284 -8.78,5.045 -8.818,4.262 -8.962,1.291 -8.961,-1.698 -7.152,-4.251 -5.639,-6.386 -2.851,-6.34 -1.233,-4.273 -0.253,-3.021 0.084,-1.568 0,0 m -8.37,9.546 c 0.983,0.424 1.897,0.872 2.848,1.22 4.631,1.692 9.562,0.326 12.009,-3.342 1.896,-2.84 2.097,-6.025 1.507,-9.236 -1.032,-5.612 -5.137,-9.071 -10.864,-9.376 -3.978,-0.213 -7.658,0.426 -10.516,3.554 -1.791,1.96 -2.743,4.31 -3.201,6.863 -0.642,3.576 -0.62,7.178 0.066,10.741 1.596,8.306 6.775,12.764 15.248,13.262 1.852,0.11 3.667,-0.181 5.495,-0.371 C 5.151,22.765 5.436,22.259 5.427,21.423 5.412,20.063 5.405,18.703 5.419,17.344 5.429,16.347 5.001,16.088 4.07,16.394 2.382,16.946 0.64,17.173 -1.134,17.031 -5.516,16.683 -8.288,13.859 -8.37,9.546" /></g><g
           id="g58"
           transform="translate(211.1055,192.9648)"><path
             inkscape:connector-curvature="0"
             id="path56"
             style="fill:#010000;fill-opacity:1;fill-rule:nonzero;stroke:none"
             d="m 0,0 c 2.784,0 5.065,-0.005 7.347,0.003 0.675,0.002 1.02,0.364 1.02,1.043 10e-4,3.148 0,6.298 0,9.446 C 8.196,10.545 8.025,10.599 7.854,10.651 5.366,7.225 2.619,3.99 0,0 m 16.383,9.45 c 0,-2.637 0.025,-5.273 -0.012,-7.909 -0.015,-1.111 0.42,-1.523 1.549,-1.577 2.947,-0.14 2.945,-0.19 2.937,-3.234 -10e-4,-0.16 -0.003,-0.319 -10e-4,-0.479 0.033,-2.671 -0.076,-2.513 -2.484,-2.502 -1.941,0.009 -1.953,-0.051 -1.987,-2.042 -0.026,-1.437 -0.019,-2.876 -0.019,-4.313 0,-0.882 -0.41,-1.317 -1.314,-1.309 -1.757,0.016 -3.516,0.038 -5.272,-0.01 -1.05,-0.028 -1.419,0.45 -1.4,1.433 0.025,1.357 0.011,2.717 -0.002,4.074 -0.021,2.134 -0.026,2.159 -2.079,2.174 -3.195,0.023 -6.391,0.007 -9.587,0.008 -0.559,10e-4 -1.118,0.012 -1.677,0.004 -0.755,-0.011 -1.235,0.3 -1.256,1.099 -0.074,2.85 -0.205,5.529 1.921,8.065 3.945,4.706 7.506,9.738 11.155,14.687 0.848,1.149 1.769,1.686 3.199,1.588 1.511,-0.104 3.035,0.006 4.552,-0.033 1.645,-0.043 1.732,-0.112 1.758,-1.816 0.041,-2.635 0.011,-5.272 0.011,-7.908 z" /></g><g
           id="g62"
           transform="translate(333.8682,185.6123)"><path
             inkscape:connector-curvature="0"
             id="path60"
             style="fill:#010000;fill-opacity:1;fill-rule:nonzero;stroke:none"
             d="m 0,0 c 0.681,-0.609 1.515,-0.323 2.27,-0.331 3.038,-0.034 6.078,-0.051 9.116,0.003 1.195,0.02 1.783,-0.344 1.768,-1.621 -0.067,-5.677 0.534,-4.542 -4.272,-4.595 -5.997,-0.066 -11.996,-0.025 -17.993,-0.01 -2.007,0.006 -2.01,0.035 -2.048,1.952 -0.012,0.56 0.063,1.129 -0.013,1.678 -0.186,1.363 0.463,2.205 1.49,3.012 3.334,2.62 6.532,5.403 9.359,8.578 1.44,1.617 2.77,3.311 3.36,5.465 1.09,3.98 -0.925,6.641 -5.028,6.665 -2.319,0.013 -4.382,-0.759 -6.358,-1.876 -1.886,-1.067 -2.007,-0.995 -2.051,1.25 -0.021,1.039 -0.02,2.079 0,3.118 0.037,1.967 0.034,2.044 1.796,2.569 3.777,1.128 7.578,1.773 11.578,1.169 8.012,-1.209 9.77,-7.829 8.09,-13.491 C 10.393,11.271 9.121,9.336 7.589,7.57 5.698,5.392 3.603,3.422 1.376,1.588 0.847,1.151 0.11,0.875 0,0" /></g><g
           id="g66"
           transform="translate(194.1455,198.5215)"><path
             inkscape:connector-curvature="0"
             id="path64"
             style="fill:#010000;fill-opacity:1;fill-rule:nonzero;stroke:none"
             d="m 0,0 c 0,-3.84 -0.012,-7.679 0.005,-11.519 0.011,-2.157 0.033,-2.165 2.098,-2.203 1.12,-0.02 2.241,-0.038 3.359,0 1.011,0.034 1.522,-0.391 1.435,-1.409 -0.418,-4.914 1.081,-4.308 -4.049,-4.332 -5.279,-0.025 -10.558,-0.016 -15.837,0.003 -1.877,0.006 -1.936,0.039 -1.928,1.829 0.021,4.599 -0.503,3.834 3.719,3.899 3.446,0.052 3.206,-0.331 3.201,3.26 -0.005,4.079 0.018,8.159 -0.015,12.238 -0.014,1.718 -0.072,1.746 -1.752,1.794 -1.279,0.037 -2.56,0.034 -3.839,0.009 -0.881,-0.016 -1.365,0.316 -1.323,1.25 0.014,0.32 -0.025,0.641 -0.003,0.959 0.07,1.023 -0.365,2.208 0.288,3.026 0.628,0.786 1.809,0.281 2.734,0.456 2.048,0.388 3.935,0.995 4.56,3.291 0.243,0.889 0.784,1.088 1.587,1.073 1.279,-0.023 2.56,0.022 3.839,-0.003 1.861,-0.035 1.9,-0.05 1.912,-1.864 C 0.018,7.838 0,3.919 0,0" /></g><g
           id="g70"
           transform="translate(396.7061,198.6436)"><path
             inkscape:connector-curvature="0"
             id="path68"
             style="fill:#010000;fill-opacity:1;fill-rule:nonzero;stroke:none"
             d="m 0,0 c 0.001,-3.916 -0.015,-7.832 0.007,-11.747 0.012,-2.073 0.041,-2.079 2.186,-2.107 1.038,-0.012 2.078,-0.025 3.117,0.006 0.948,0.03 1.544,-0.259 1.506,-1.335 -0.014,-0.397 0.068,-0.796 0.082,-1.195 0.113,-3.201 0.111,-3.208 -3.044,-3.21 -5.594,-0.005 -11.188,-0.014 -16.782,0.006 -1.96,0.007 -2.01,0.042 -1.991,2.005 0.04,4.185 -0.588,3.691 3.655,3.719 3.551,0.022 3.26,-0.298 3.269,3.189 0.011,4.076 0.022,8.151 -0.006,12.227 -0.013,1.827 -0.058,1.84 -1.912,1.884 -1.278,0.031 -2.557,0.028 -3.836,0.017 -0.79,-0.006 -1.187,0.349 -1.173,1.146 0.004,0.24 -0.019,0.481 -0.006,0.719 0.065,1.111 -0.384,2.385 0.227,3.289 0.62,0.917 1.937,0.328 2.93,0.538 2.037,0.432 3.89,1.093 4.476,3.398 0.202,0.795 0.733,0.965 1.427,0.957 0.08,-10e-4 0.16,0.007 0.24,0.002 1.744,-0.104 3.905,0.686 5.129,-0.33 C 0.807,12.094 -0.09,9.869 -0.027,8.15 0.07,5.437 -0.001,2.717 0,0" /></g><g
           id="g74"
           transform="translate(243.9604,183.2148)"><path
             inkscape:connector-curvature="0"
             id="path72"
             style="fill:#010000;fill-opacity:1;fill-rule:nonzero;stroke:none"
             d="m 0,0 c -0.221,-1.156 0.667,-2.905 -0.43,-3.868 -0.95,-0.834 -2.601,-0.286 -3.937,-0.278 -3.772,0.022 -3.521,-0.601 -3.513,3.619 0.002,1.273 0.011,2.546 0.02,3.819 0.005,0.771 0.376,1.168 1.168,1.165 1.829,-0.008 3.659,-0.014 5.489,0.001 C -0.252,4.466 0.022,3.937 0.004,3.093 -0.016,2.139 0,1.184 0,0" /></g><g
           id="g78"
           transform="translate(308.374,183.457)"><path
             inkscape:connector-curvature="0"
             id="path76"
             style="fill:#010000;fill-opacity:1;fill-rule:nonzero;stroke:none"
             d="M 0,0 C -0.001,0.715 -0.012,1.431 0.001,2.146 0.038,4.156 0.041,4.175 1.937,4.208 3.446,4.234 4.958,4.194 6.468,4.212 7.373,4.223 7.753,3.794 7.746,2.912 7.731,0.925 7.733,-1.062 7.742,-3.05 7.745,-3.891 7.465,-4.411 6.512,-4.399 4.763,-4.378 3.014,-4.387 1.266,-4.405 0.36,-4.414 -0.027,-3.994 -0.005,-3.101 0.021,-2.067 0.001,-1.033 0,0" /></g><path
           d="m 277.6299,418.9175 c -3.5,1.156 -7.351,1.599 -10.714,3.522 -4.303,2.462 -8.572,4.986 -12.793,7.586 -3.004,1.85 -5.567,4.298 -8.284,6.528 -14.065,11.543 -23.574,26.122 -28.931,43.477 -2.395,7.759 -3.429,15.711 -4.253,23.768 -0.789,7.717 0.097,15.296 0.675,22.911 0.29,3.818 1.596,7.484 2.873,11.106 3.551,10.074 8.051,19.664 14.364,28.341 5.254,7.22 11.239,13.729 18.438,19.064 3.403,2.522 6.619,5.309 10.286,7.461 6.905,4.052 13.997,7.673 21.871,9.532 2.797,0.661 5.549,1.525 8.294,2.384 2.09,0.654 4.256,0.728 6.392,0.94 4.451,0.441 8.929,0.618 13.379,1.068 5.089,0.514 10.04,-0.399 15.017,-1.136 2.055,-0.305 4.1,-0.696 6.161,-0.932 6.032,-0.693 11.561,-3.093 17.22,-5.03 9.286,-3.177 17.209,-8.633 24.798,-14.74 6.973,-5.613 12.798,-12.269 18.454,-19.109 2.094,-2.532 3.372,-5.613 5.09,-8.403 4.532,-7.359 6.927,-15.616 9.741,-23.672 1.339,-3.83 1.26,-8.038 2.022,-12.039 0.86,-4.518 0.563,-9.054 0.64,-13.603 0.122,-7.176 -0.803,-14.118 -2.551,-21.078 -2.572,-10.243 -6.624,-19.849 -11.695,-29.028 -1.8,-3.257 -4.465,-6.028 -6.659,-9.076 -2.882,-4 -6.811,-6.963 -10.189,-10.467 -5.064,-5.252 -11.414,-8.708 -17.424,-12.63 -7.226,-4.715 -15.249,-7.62 -23.449,-10.094 -0.382,-0.115 -0.767,-0.221 -1.152,-0.329 -0.953,-0.266 -1.321,0.166 -1.346,1.084 -0.054,2.077 -0.173,4.155 -0.194,6.233 -0.028,2.959 0.09,5.922 -10e-4,8.878 -0.134,4.358 1.06,8.399 2.956,12.216 1.1,2.215 3.066,3.862 4.687,5.72 7.716,8.845 15.585,17.568 22.581,27.007 3.05,4.118 5.423,8.657 7.094,13.534 0.218,0.634 0.142,1.263 0.143,1.896 0.006,4.64 -0.133,9.284 0.036,13.918 0.176,4.842 -0.554,9.538 -1.559,14.236 -1.621,7.57 -3.118,15.166 -4.742,22.736 -0.687,3.202 -2.213,5.69 -5.663,6.78 -3.208,1.013 -6.464,1.76 -9.737,2.462 -1.236,0.266 -2.18,0.776 -2.989,1.769 -2.573,3.155 -5.16,6.302 -7.857,9.351 -2.531,2.86 -5.508,4.939 -9.452,5.641 -5.472,0.974 -9.863,-0.914 -13.698,-4.533 -1.021,-0.964 -2.013,-1.403 -3.388,-1.271 -1.51,0.146 -3.035,0.113 -4.55,0.211 -4.4,0.283 -8.011,-1.484 -11.457,-4.039 -2.923,-2.168 -4.933,-4.962 -6.54,-8.113 -0.659,-1.295 -1.565,-1.915 -3.016,-1.813 -3.345,0.234 -6.287,-0.913 -9.004,-2.739 -3.326,-2.237 -5.771,-5.215 -7.304,-8.923 -0.305,-0.737 -0.626,-1.489 -0.767,-2.266 -0.182,-0.995 -0.777,-1.084 -1.564,-0.948 -0.472,0.082 -0.935,0.211 -1.408,0.282 -3.06,0.462 -5.607,-0.431 -7.82,-2.65 -2.718,-2.726 -5.267,-5.523 -7.244,-8.881 -2.348,-3.987 -2.59,-8.139 -1.705,-12.488 0.275,-1.351 1.021,-2.518 1.934,-3.541 2.719,-3.047 3.839,-6.518 4.066,-10.671 0.407,-7.47 1.047,-14.968 2.417,-22.332 0.8,-4.299 2.584,-8.387 4.385,-12.402 2.44,-5.44 5.903,-10.262 9.591,-14.871 2.164,-2.706 3.142,-5.59 3.533,-8.911 0.688,-5.86 1.553,-11.698 2.335,-17.548 0.052,-0.389 0.091,-0.799 -0.374,-1.336"
           style="fill:#cb0011;fill-opacity:1;fill-rule:nonzero;stroke:none"
           id="path80"
           inkscape:connector-curvature="0" /><g
           id="g86"
           transform="translate(337.2637,522.7822)"><path
             inkscape:connector-curvature="0"
             id="path84"
             style="fill:#ffffff;fill-opacity:1;fill-rule:nonzero;stroke:none"
             d="m 0,0 c 0.073,2.314 -0.844,3.663 -3.024,4.021 -3.266,0.538 -6.296,1.569 -9.08,3.407 -1.477,0.975 -2.448,0.345 -2.285,-1.485 0.132,-1.483 0.359,-3.028 0.926,-4.385 1.222,-2.919 3.495,-4.798 6.524,-5.781 1.154,-0.374 2.197,0.165 3.287,0.258 C -1.541,-3.786 -0.065,-2.078 0,0 m -52.973,-24.178 c 0.637,2.297 -0.476,4.814 -1.515,6.982 -1.126,2.347 -2.213,4.729 -3.322,7.093 -0.2,0.429 -0.481,0.83 -0.777,1.201 -3.084,3.861 -6.163,7.726 -9.279,11.562 -1.222,1.506 -4.601,2.255 -6.143,1.239 -2.685,-1.768 -5.157,-3.81 -5.661,-7.274 -0.273,-1.871 -0.899,-3.979 0.36,-5.572 3.001,-3.797 5.613,-7.933 9.428,-11.055 2.444,-2 5.001,-3.877 6.136,-7.111 0.879,-2.503 2.879,-3.571 5.612,-3.426 1.793,0.096 3.233,0.934 4.571,1.869 1.115,0.78 0.451,2.237 0.586,3.392 0.027,0.236 0.004,0.479 0.004,1.1 m 16.255,4.519 c -0.032,0.156 -0.078,0.311 -0.094,0.468 -0.592,5.943 -1.166,11.888 -1.781,17.829 -0.221,2.134 -0.083,4.465 -0.923,6.341 -1.432,3.199 -2.661,6.487 -4.172,9.648 -1.664,3.479 -4.294,4.786 -8.106,4.124 -0.706,-0.122 -1.424,-0.206 -2.139,-0.23 -0.524,-0.019 -0.928,-0.216 -1.265,-0.572 -1.733,-1.834 -3.688,-3.355 -4.999,-5.705 -1.69,-3.026 -1.364,-5.9 -0.333,-8.708 1.857,-5.057 4.731,-9.571 8.39,-13.568 1.287,-1.406 2.629,-2.806 3.077,-4.773 0.579,-2.542 2.003,-4.639 3.42,-6.775 1.012,-1.525 2.223,-2.303 4.041,-2.459 2.478,-0.211 4.936,1.899 4.884,4.38 m 16.652,43.996 c 0.029,-0.157 0.094,-0.316 0.085,-0.471 -0.202,-3.335 1.432,-5.904 3.346,-8.426 1.535,-2.022 3.288,-3.622 5.714,-4.506 C -9.578,10.444 -8.326,9.7 -7.044,9.05 -4.759,7.892 -2.435,6.902 0.141,6.515 2.142,6.213 2.124,6.105 2.226,4.124 2.242,3.804 2.31,3.483 2.288,3.167 2.098,0.419 2.589,-2.07 5.181,-3.85 4.535,-4.588 3.972,-5.09 3.269,-5.448 c -3.43,-1.748 -5.966,-4.404 -7.775,-7.762 -0.69,-1.282 -1.636,-1.978 -3.089,-2.337 -3.245,-0.801 -6.425,-1.857 -9.652,-2.732 -1.966,-0.533 -3.652,-1.642 -5.307,-2.69 -2.854,-1.807 -6.176,-2.593 -8.992,-4.41 -2.857,-1.843 -5.541,-3.934 -8.286,-5.931 -4.069,-2.96 -7.737,-6.7 -12.872,-7.944 -1.936,-0.47 -3.915,-0.762 -5.872,-1.144 -1.014,-0.199 -1.841,0.095 -2.658,0.732 -3.016,2.349 -6.215,4.482 -8.546,7.605 -0.255,0.342 -0.534,0.846 -1.363,0.57 -0.394,-1.548 0.013,-3.214 0.139,-4.811 0.182,-2.307 0.337,-4.609 0.387,-6.922 0.1,-4.532 1.611,-8.73 3.033,-12.962 1.88,-5.601 5.489,-10.225 8.415,-15.235 0.202,-0.345 0.395,-0.7 0.636,-1.016 1.864,-2.441 2.401,-5.247 2.684,-8.255 0.606,-6.435 1.353,-12.854 1.422,-19.327 0.016,-1.515 0.101,-3.039 -0.643,-4.51 -1.249,-0.307 -1.643,0.464 -1.921,1.593 -0.778,3.168 -1.126,6.405 -1.585,9.62 -0.707,4.96 -1.276,9.941 -1.903,14.913 -0.062,0.492 -0.244,0.927 -0.611,1.268 -6.912,6.403 -10.764,14.701 -14.22,23.208 -0.795,1.959 -1.277,4.073 -1.638,6.209 -0.448,2.662 -1.083,5.302 -1.358,7.989 -0.421,4.121 -0.69,8.256 -1.057,12.382 -0.339,3.812 -0.571,7.631 -2.722,11.035 -0.667,1.056 -1.331,2.212 -2.032,3.176 -2.285,3.142 -1.992,6.497 -0.622,9.499 1.938,4.249 4.559,8.148 8.378,11.154 2.513,1.978 5.07,2.452 8.027,1.667 1.694,-0.45 1.713,-0.45 2.528,1.136 1.16,2.258 2.192,4.571 3.756,6.617 3.218,4.212 7.259,6.801 12.694,6.81 2.82,0.004 2.75,0.127 3.858,2.79 1.174,2.822 3.431,4.867 5.701,6.895 4.158,3.713 9.136,4.585 14.427,4.587 0.317,0 0.635,-0.089 0.953,-0.109 1.337,-0.083 2.399,0.3 3.404,1.323 2.087,2.125 4.457,3.891 7.523,4.401 3.975,0.662 7.822,0.602 10.895,-2.497 3.182,-3.207 6.303,-6.459 8.729,-10.338 1.008,-1.611 2.264,-3.022 4.569,-3.385 3.526,-0.556 7.01,-1.472 10.454,-2.5 2.749,-0.821 3.992,-2.726 4.532,-5.299 1.635,-7.792 3.051,-15.636 4.922,-23.37 1.529,-6.318 1.221,-12.683 1.353,-19.055 0.033,-1.598 -0.126,-3.212 0.03,-4.796 0.443,-4.456 -1.297,-8.26 -3.372,-11.982 -2.655,-4.762 -6.159,-8.89 -9.671,-13.02 -6.282,-7.39 -12.42,-14.905 -18.799,-22.208 -4.186,-4.793 -5.544,-10.41 -5.669,-16.504 -0.072,-3.517 -0.046,-7.037 -0.005,-10.555 0.023,-2.023 -0.587,-4.074 0.551,-6.046 -0.686,-0.183 -1.057,-0.297 -1.434,-0.38 -1.355,-0.299 -1.813,-0.062 -1.815,1.308 -0.005,3.443 -0.857,6.821 -0.665,10.282 0.071,1.262 -0.206,2.543 -0.313,3.816 -0.18,2.141 -0.49,4.253 -0.141,6.438 0.374,2.346 0.221,2.371 -1.938,3.462 -4.337,2.191 -8.673,4.387 -12.967,6.759 1.706,0.337 3.388,-0.028 4.952,-0.432 3.633,-0.938 7.305,-0.56 10.96,-0.731 1.279,-0.059 1.979,0.749 2.721,1.646 6.457,7.808 12.891,15.637 19.451,23.359 3.828,4.506 7.371,9.235 10.917,13.948 2.102,2.794 3.024,6.316 3.814,9.738 0.357,1.541 -0.232,3.154 -0.273,4.754 -0.259,9.983 -1.583,19.849 -3.574,29.624 -0.3,1.472 -0.935,2.879 -1.458,4.301 -1.186,3.218 -2.469,6.403 -3.565,9.651 -0.44,1.306 -1.267,1.962 -2.456,2.341 -5.704,1.815 -11.379,3.723 -17.169,5.257 -0.439,0.116 -0.77,0.077 -1.066,-0.257 0.054,0.052 0.141,0.094 0.159,0.156 0.051,0.183 -0.036,0.297 -0.225,0.328 1.059,0.487 2.331,0.048 3.628,0.764 -2.507,3.332 -4.102,7.086 -7.874,9.239 -2.01,1.148 -3.831,2.379 -6.243,2.594 -3.311,0.294 -6.578,-1.828 -7.318,-5.017 -0.287,-1.236 -0.595,-2.468 -0.893,-3.701 -0.517,-0.511 -1.327,-0.088 -1.85,-0.58 -3.91,2.145 -7.887,3.746 -12.388,1.722 -0.574,-0.258 -1.19,-0.352 -1.653,-0.873 -1.108,-1.244 -2.34,-2.36 -3.433,-3.639 -2.088,-2.442 -2.486,-4.958 -1.448,-7.922 1.24,-3.542 2.346,-7.131 3.485,-10.707 2.035,-6.391 3.853,-12.85 6.065,-19.187 0.729,-2.085 2.441,-3.306 3.763,-4.871 0.548,-0.648 1.325,-0.436 2.015,-0.195 1.056,0.368 2.105,0.761 3.144,1.175 2.35,0.937 3.785,3.107 3.836,5.709 0.048,2.391 0.044,4.776 0.21,7.172 0.162,2.349 0.549,4.809 -0.27,7.113 -1.946,5.469 -2.735,11.122 -2.975,16.883 -0.038,0.924 0.253,1.382 1.234,1.173 z" /></g><g
           id="g90"
           transform="translate(315.6572,553.5283)"><path
             inkscape:connector-curvature="0"
             id="path88"
             style="fill:#ec1b24;fill-opacity:1;fill-rule:nonzero;stroke:none"
             d="m 0,0 c 0.523,0.492 1.333,0.069 1.851,0.581 1.984,0.366 3.92,0.229 5.871,-0.332 4.262,-1.228 8.55,-2.371 12.829,-3.548 0.188,-0.032 0.275,-0.145 0.224,-0.328 -0.017,-0.062 -0.104,-0.104 -0.159,-0.156 -0.049,-1.349 -0.03,-2.706 -0.169,-4.047 -0.11,-1.057 0.153,-2.386 -1.038,-2.975 -1.532,-0.758 -3.046,-1.725 -4.95,-1.016 -3.427,1.275 -6.809,2.642 -10.072,4.301 -0.905,0.459 -1.742,1.146 -2.848,1.111 0.001,0 0.047,-0.038 0.047,-0.038 C 1.472,-6.076 1.46,-5.615 1.226,-5.348 -0.153,-3.773 -0.247,-1.932 0,0" /></g><g
           id="g94"
           transform="translate(266.02,195.7988)"
           style="fill:#cb0011;fill-opacity:1"><path
             inkscape:connector-curvature="0"
             id="path92"
             style="fill:#cb0011;fill-opacity:1;fill-rule:nonzero;stroke:none"
             d="m 0,0 c 0.123,-2.081 -0.047,-4.146 -0.382,-6.196 -0.128,-0.783 -0.294,-1.575 -0.568,-2.315 -0.676,-1.822 -1.844,-2.648 -3.556,-2.632 -1.677,0.016 -2.813,0.893 -3.512,2.714 -0.64,1.664 -0.753,3.437 -0.855,5.173 -0.181,3.104 -0.166,6.219 0.33,9.307 0.164,1.029 0.435,2.026 0.93,2.949 0.659,1.229 1.681,1.897 3.085,1.913 1.495,0.016 2.592,-0.655 3.276,-1.993 C -0.281,7.018 -0.23,4.922 -0.016,2.869 0.083,1.923 0.001,0.957 0,0" /></g><g
           id="g98"
           transform="translate(367.3037,195.5801)"
           style="fill:#cb0011;fill-opacity:1"><path
             inkscape:connector-curvature="0"
             id="path96"
             style="fill:#cb0011;fill-opacity:1;fill-rule:nonzero;stroke:none"
             d="m 0,0 c 0.149,-1.957 -0.082,-4.019 -0.394,-6.069 -0.119,-0.783 -0.295,-1.576 -0.584,-2.309 -0.709,-1.81 -1.871,-2.548 -3.621,-2.545 -1.802,0.004 -2.75,1.087 -3.362,2.577 -0.708,1.724 -0.819,3.581 -0.916,5.401 -0.16,3.023 -0.197,6.061 0.324,9.064 0.15,0.86 0.343,1.731 0.67,2.533 0.617,1.513 1.691,2.502 3.445,2.485 1.74,-0.017 2.817,-0.975 3.422,-2.514 C -0.276,6.742 -0.14,4.744 -0.01,2.756 0.047,1.883 0,1.002 0,0" /></g><g
           id="g102"
           transform="translate(425.0391,199.6963)"
           style="fill:#cb0011;fill-opacity:1"><path
             inkscape:connector-curvature="0"
             id="path100"
             style="fill:#cb0011;fill-opacity:1;fill-rule:nonzero;stroke:none"
             d="m 0,0 c 0.061,-3.242 -0.463,-3.794 -3.484,-3.859 -3.399,-0.074 -5.19,1.643 -5.263,5.05 -0.028,1.281 0.016,2.541 0.514,3.761 0.751,1.842 1.788,2.655 3.524,2.712 C -2.867,7.726 -1.72,6.786 -1.004,5.183 -0.241,3.475 0.002,1.67 0,0" /></g><g
           id="g106"
           transform="translate(295.3159,189.6689)"
           style="fill:#cb0011;fill-opacity:1"><path
             inkscape:connector-curvature="0"
             id="path104"
             style="fill:#cb0011;fill-opacity:1;fill-rule:nonzero;stroke:none"
             d="m 0,0 c 0.085,-1.568 -0.252,-3.021 -1.232,-4.273 -1.618,-2.067 -4.406,-2.113 -5.919,0.022 -1.809,2.553 -1.81,5.542 -1.666,8.513 0.038,0.783 0.736,1.022 1.352,1.161 C -3.489,6.315 0.193,5.432 0,0" /></g><g
           id="g110"
           transform="translate(211.1055,192.9648)"
           style="fill:#cb0011;fill-opacity:1"><path
             inkscape:connector-curvature="0"
             id="path108"
             style="fill:#cb0011;fill-opacity:1;fill-rule:nonzero;stroke:none"
             d="m 0,0 c 2.619,3.99 5.366,7.225 7.854,10.651 0.171,-0.052 0.342,-0.106 0.513,-0.159 0,-3.148 10e-4,-6.298 0,-9.446 C 8.367,0.367 8.022,0.005 7.347,0.003 5.065,-0.005 2.784,0 0,0" /></g><g
           id="g114"
           transform="translate(315.6572,553.5283)"><path
             inkscape:connector-curvature="0"
             id="path112"
             style="fill:#010000;fill-opacity:1;fill-rule:nonzero;stroke:none"
             d="M 0,0 C -0.247,-1.932 -0.153,-3.773 1.226,-5.348 1.46,-5.615 1.472,-6.076 1.586,-6.447 0.604,-6.238 0.313,-6.696 0.352,-7.62 c 0.24,-5.761 1.029,-11.414 2.974,-16.883 0.82,-2.304 0.433,-4.764 0.271,-7.113 -0.166,-2.396 -0.162,-4.781 -0.21,-7.173 -0.052,-2.601 -1.487,-4.771 -3.836,-5.708 -1.039,-0.414 -2.088,-0.807 -3.145,-1.175 -0.689,-0.241 -1.467,-0.453 -2.014,0.195 -1.323,1.565 -3.035,2.786 -3.763,4.871 -2.213,6.336 -4.03,12.795 -6.066,19.187 -1.139,3.576 -2.244,7.165 -3.485,10.707 -1.038,2.963 -0.64,5.48 1.448,7.921 1.094,1.28 2.325,2.395 3.433,3.64 0.463,0.521 1.079,0.615 1.654,0.873 C -7.887,3.746 -3.909,2.145 0,0" /></g><g
           id="g118"
           transform="translate(300.5454,503.123)"><path
             inkscape:connector-curvature="0"
             id="path116"
             style="fill:#010000;fill-opacity:1;fill-rule:nonzero;stroke:none"
             d="m 0,0 c 0.052,-2.48 -2.405,-4.591 -4.883,-4.379 -1.819,0.155 -3.03,0.933 -4.041,2.458 -1.417,2.136 -2.842,4.234 -3.421,6.775 -0.447,1.967 -1.79,3.367 -3.077,4.773 -3.659,3.997 -6.533,8.512 -8.39,13.568 -1.031,2.808 -1.356,5.682 0.333,8.708 1.312,2.35 3.266,3.871 5,5.705 0.336,0.356 0.741,0.554 1.265,0.572 0.714,0.024 1.433,0.109 2.138,0.231 3.812,0.661 6.442,-0.646 8.106,-4.125 1.512,-3.161 2.74,-6.449 4.173,-9.648 0.839,-1.876 0.701,-4.206 0.922,-6.341 C -1.259,12.356 -0.686,6.412 -0.094,0.468 -0.078,0.311 -0.031,0.156 0,0" /></g><g
           id="g122"
           transform="translate(284.2905,498.604)"><path
             inkscape:connector-curvature="0"
             id="path120"
             style="fill:#010000;fill-opacity:1;fill-rule:nonzero;stroke:none"
             d="m 0,0 c 0,-0.621 0.023,-0.864 -0.004,-1.1 -0.135,-1.155 0.529,-2.612 -0.586,-3.392 -1.338,-0.935 -2.778,-1.773 -4.571,-1.868 -2.733,-0.146 -4.733,0.923 -5.612,3.425 -1.135,3.234 -3.691,5.111 -6.136,7.111 -3.815,3.122 -6.427,7.259 -9.427,11.055 -1.26,1.594 -0.634,3.701 -0.361,5.573 0.505,3.464 2.976,5.506 5.661,7.274 1.542,1.015 4.921,0.266 6.143,-1.24 3.116,-3.836 6.195,-7.701 9.279,-11.562 0.297,-0.371 0.577,-0.772 0.778,-1.2 C -3.728,11.711 -2.641,9.33 -1.515,6.982 -0.476,4.814 0.637,2.297 0,0" /></g><g
           id="g126"
           transform="translate(336.208,550.2295)"><path
             inkscape:connector-curvature="0"
             id="path124"
             style="fill:#010000;fill-opacity:1;fill-rule:nonzero;stroke:none"
             d="m 0,0 c -4.278,1.177 -8.566,2.319 -12.829,3.547 -1.95,0.561 -3.887,0.699 -5.871,0.333 0.298,1.232 0.605,2.463 0.892,3.7 0.741,3.189 4.007,5.311 7.319,5.017 2.412,-0.215 4.233,-1.447 6.243,-2.594 C -0.475,7.85 1.121,4.096 3.628,0.764 2.331,0.047 1.059,0.487 0,0" /></g><g
           id="g130"
           transform="translate(337.2637,522.7822)"><path
             inkscape:connector-curvature="0"
             id="path128"
             style="fill:#010000;fill-opacity:1;fill-rule:nonzero;stroke:none"
             d="m 0,0 c -0.065,-2.078 -1.541,-3.786 -3.652,-3.965 -1.09,-0.093 -2.133,-0.632 -3.287,-0.258 -3.029,0.983 -5.302,2.862 -6.524,5.781 -0.567,1.357 -0.794,2.902 -0.926,4.385 -0.163,1.83 0.808,2.46 2.285,1.485 C -9.32,5.59 -6.29,4.559 -3.024,4.021 -0.844,3.663 0.073,2.314 0,0" /></g></g></g></g></svg>