<?xml version="1.0" encoding="UTF-8" standalone="no"?>
<!-- Created with Inkscape (http://www.inkscape.org/) -->

<svg
   xmlns:dc="http://purl.org/dc/elements/1.1/"
   xmlns:cc="http://creativecommons.org/ns#"
   xmlns:rdf="http://www.w3.org/1999/02/22-rdf-syntax-ns#"
   xmlns:svg="http://www.w3.org/2000/svg"
   xmlns="http://www.w3.org/2000/svg"
   xmlns:sodipodi="http://sodipodi.sourceforge.net/DTD/sodipodi-0.dtd"
   xmlns:inkscape="http://www.inkscape.org/namespaces/inkscape"
   version="1.1"
   id="svg2"
   xml:space="preserve"
   width="1122.52"
   height="793.70667"
   viewBox="0 0 1122.52 793.70667"
   sodipodi:docname="logo-sit.svg"
   inkscape:version="0.92.3 (2405546, 2018-03-11)"><metadata
     id="metadata8"><rdf:RDF><cc:Work
         rdf:about=""><dc:format>image/svg+xml</dc:format><dc:type
           rdf:resource="http://purl.org/dc/dcmitype/StillImage" /><dc:title></dc:title></cc:Work></rdf:RDF></metadata><defs
     id="defs6"><clipPath
       clipPathUnits="userSpaceOnUse"
       id="clipPath20"><path
         d="M 0,595.28 H 841.89 V 0 H 0 Z"
         id="path18"
         inkscape:connector-curvature="0" /></clipPath></defs><sodipodi:namedview
     pagecolor="#ffffff"
     bordercolor="#666666"
     borderopacity="1"
     objecttolerance="10"
     gridtolerance="10"
     guidetolerance="10"
     inkscape:pageopacity="0"
     inkscape:pageshadow="2"
     inkscape:window-width="1600"
     inkscape:window-height="795"
     id="namedview4"
     showgrid="false"
     inkscape:zoom="2.1197384"
     inkscape:cx="424.08823"
     inkscape:cy="292.17446"
     inkscape:window-x="0"
     inkscape:window-y="27"
     inkscape:window-maximized="1"
     inkscape:current-layer="g14" /><g
     id="g10"
     inkscape:groupmode="layer"
     inkscape:label="logo-poing (1)"
     transform="matrix(1.3333333,0,0,-1.3333333,0,793.70667)"><g
       id="g14"><path
         inkscape:connector-curvature="0"
         id="path22"
         style="fill:#009edf;fill-opacity:0.97512436;fill-rule:nonzero;stroke:none"
         d="m 269.287,186.559 h -5.269 v 18.18 h 5.269 z m -2.617,20.554 c -2.024,0 -3.175,1.186 -3.175,3.209 0,2.024 1.151,3.175 3.175,3.175 1.989,0 3.176,-1.151 3.176,-3.175 0,-2.023 -1.187,-3.209 -3.176,-3.209" /><g
         transform="translate(290.2935,186.5593)"
         id="g24"
         style="fill:#009edf;fill-opacity:0.97512436"><path
           inkscape:connector-curvature="0"
           id="path26"
           style="fill:#009edf;fill-opacity:0.97512436;fill-rule:nonzero;stroke:none"
           d="m 0,0 h -5.269 v 11.516 c 0,1.953 -0.768,2.791 -2.407,2.791 -1.431,0 -2.862,-0.802 -3.559,-1.43 V 0 h -5.269 v 18.18 h 4.675 l 0.279,-1.815 c 1.326,1.221 3.315,2.198 5.793,2.198 4.012,0 5.757,-1.988 5.757,-6.141 z" /></g><g
         transform="translate(306.4863,187.4333)"
         id="g28"
         style="fill:#009edf;fill-opacity:0.97512436"><path
           inkscape:connector-curvature="0"
           id="path30"
           style="fill:#009edf;fill-opacity:0.97512436;fill-rule:nonzero;stroke:none"
           d="m 0,0 c -0.908,-0.595 -3.036,-1.293 -5.339,-1.293 -3.803,0 -5.792,1.745 -5.792,5.897 v 8.864 h -2.722 v 3.838 h 2.722 v 5.375 l 5.268,0.696 v -6.071 h 4.816 v -3.838 h -4.816 v -8.13 c 0,-1.606 0.454,-2.442 2.129,-2.442 1.047,0 2.303,0.417 3.001,0.836 z" /></g><g
         transform="translate(319.397,197.6902)"
         id="g32"
         style="fill:#009edf;fill-opacity:0.97512436"><path
           inkscape:connector-curvature="0"
           id="path34"
           style="fill:#009edf;fill-opacity:0.97512436;fill-rule:nonzero;stroke:none"
           d="M 0,0 C 0,2.617 -0.942,3.629 -2.651,3.629 -4.152,3.629 -5.618,2.653 -5.652,0 Z m -11.271,-2.093 c 0,6.56 4.014,9.526 8.898,9.526 5.514,0 7.817,-3.35 7.817,-8.41 0,-0.592 -0.035,-1.744 -0.105,-2.373 H -5.722 c 0.104,-3.001 1.361,-4.117 3.663,-4.117 1.885,0 2.617,1.046 2.966,2.582 l 4.432,-1.081 c -0.663,-3.386 -3.385,-5.584 -7.712,-5.584 -6.734,0 -8.898,4.537 -8.898,9.457" /></g><g
         transform="translate(340.0562,199.9587)"
         id="g36"
         style="fill:#009edf;fill-opacity:0.97512436"><path
           inkscape:connector-curvature="0"
           id="path38"
           style="fill:#009edf;fill-opacity:0.97512436;fill-rule:nonzero;stroke:none"
           d="m 0,0 c -2.374,0.209 -4.711,-0.418 -6.246,-1.64 v -11.759 h -5.269 V 4.78 h 4.501 L -6.63,1.919 c 1.221,1.78 2.931,3.245 5.723,3.245 0.279,0 0.593,-0.034 0.907,-0.034 z" /></g><g
         transform="translate(348.0474,191.5847)"
         id="g40"
         style="fill:#009edf;fill-opacity:0.97512436"><path
           inkscape:connector-curvature="0"
           id="path42"
           style="fill:#009edf;fill-opacity:0.97512436;fill-rule:nonzero;stroke:none"
           d="m 0,0 c 0.523,-0.489 1.885,-1.221 3.175,-1.221 2.443,0 3.42,2.023 3.42,5.548 0,3.663 -1.082,5.025 -3.21,5.025 C 2.163,9.352 0.802,8.618 0,7.956 Z m -5.199,13.154 h 4.467 l 0.313,-1.849 c 1.57,1.57 3.664,2.233 5.688,2.233 3.874,0 6.839,-2.372 6.839,-9.071 0,-7.224 -3.385,-9.911 -7.398,-9.911 -2.233,0 -3.663,0.698 -4.814,1.745 v -8.723 h -5.095 z" /></g><g
         transform="translate(375.4756,199.9587)"
         id="g44"
         style="fill:#009edf;fill-opacity:0.97512436"><path
           inkscape:connector-curvature="0"
           id="path46"
           style="fill:#009edf;fill-opacity:0.97512436;fill-rule:nonzero;stroke:none"
           d="m 0,0 c -2.373,0.209 -4.711,-0.418 -6.246,-1.64 v -11.759 h -5.269 V 4.78 h 4.501 l 0.385,-2.861 c 1.221,1.78 2.931,3.245 5.722,3.245 0.279,0 0.593,-0.034 0.907,-0.034 z" /></g><g
         transform="translate(389.6084,195.7732)"
         id="g48"
         style="fill:#009edf;fill-opacity:0.97512436"><path
           inkscape:connector-curvature="0"
           id="path50"
           style="fill:#009edf;fill-opacity:0.97512436;fill-rule:nonzero;stroke:none"
           d="m 0,0 c 0,3.977 -1.082,5.371 -3.419,5.371 -2.373,0 -3.699,-1.499 -3.699,-5.442 0,-4.047 1.012,-5.654 3.594,-5.654 C -1.221,-5.725 0,-4.259 0,0 m -12.631,-0.212 c 0,5.828 3.036,9.562 9.352,9.562 6.315,0 8.758,-3.804 8.758,-9.176 0,-5.933 -2.722,-9.807 -9.247,-9.807 -6.595,0 -8.863,3.979 -8.863,9.421" /></g><g
         transform="translate(409.7104,208.8913)"
         id="g52"
         style="fill:#009edf;fill-opacity:0.97512436"><path
           inkscape:connector-curvature="0"
           id="path54"
           style="fill:#009edf;fill-opacity:0.97512436;fill-rule:nonzero;stroke:none"
           d="m 0,0 c -0.698,0.244 -1.605,0.454 -2.443,0.454 -1.64,0 -2.791,-0.489 -2.791,-3.001 v -1.605 h 4.815 V -7.99 h -4.815 v -14.342 h -5.27 V -7.99 h -2.442 v 3.838 h 2.442 v 2.093 c 0,4.502 2.688,6.456 6.7,6.456 1.884,0 3.42,-0.384 4.012,-0.664 z" /></g><g
         transform="translate(421.5396,197.6902)"
         id="g56"
         style="fill:#009edf;fill-opacity:0.97512436"><path
           inkscape:connector-curvature="0"
           id="path58"
           style="fill:#009edf;fill-opacity:0.97512436;fill-rule:nonzero;stroke:none"
           d="M 0,0 C 0,2.617 -0.942,3.629 -2.651,3.629 -4.152,3.629 -5.618,2.653 -5.652,0 Z m -11.271,-2.093 c 0,6.56 4.013,9.526 8.898,9.526 5.513,0 7.817,-3.35 7.817,-8.41 0,-0.592 -0.035,-1.744 -0.105,-2.373 H -5.722 c 0.104,-3.001 1.361,-4.117 3.663,-4.117 1.884,0 2.617,1.046 2.966,2.582 l 4.432,-1.081 c -0.664,-3.386 -3.385,-5.584 -7.712,-5.584 -6.734,0 -8.898,4.537 -8.898,9.457" /></g><g
         transform="translate(444.7803,200.3073)"
         id="g60"
         style="fill:#009edf;fill-opacity:0.97512436"><path
           inkscape:connector-curvature="0"
           id="path62"
           style="fill:#009edf;fill-opacity:0.97512436;fill-rule:nonzero;stroke:none"
           d="m 0,0 -4.326,-1.359 c -0.454,1.534 -1.222,2.475 -3.142,2.475 -1.499,0 -2.302,-0.557 -2.302,-1.604 0,-1.325 1.535,-1.606 3.699,-1.988 3.175,-0.559 6.385,-1.257 6.385,-5.549 0,-4.152 -3.523,-6.142 -7.99,-6.142 -4.677,0 -7.119,1.99 -7.747,4.99 l 4.292,1.396 c 0.419,-1.396 1.152,-2.756 3.63,-2.756 1.779,0 2.616,0.594 2.616,1.71 0,1.36 -1.256,1.57 -3.385,1.953 -3.174,0.594 -6.559,1.326 -6.559,5.758 0,4.012 3.524,5.931 7.572,5.931 C -3.141,4.815 -0.872,3.036 0,0" /></g><g
         transform="translate(462.7871,200.3073)"
         id="g64"
         style="fill:#009edf;fill-opacity:0.97512436"><path
           inkscape:connector-curvature="0"
           id="path66"
           style="fill:#009edf;fill-opacity:0.97512436;fill-rule:nonzero;stroke:none"
           d="m 0,0 -4.327,-1.359 c -0.453,1.534 -1.221,2.475 -3.141,2.475 -1.5,0 -2.302,-0.557 -2.302,-1.604 0,-1.325 1.535,-1.606 3.699,-1.988 3.175,-0.559 6.384,-1.257 6.384,-5.549 0,-4.152 -3.524,-6.142 -7.99,-6.142 -4.676,0 -7.118,1.99 -7.746,4.99 l 4.292,1.396 c 0.419,-1.396 1.151,-2.756 3.628,-2.756 1.78,0 2.617,0.594 2.617,1.71 0,1.36 -1.256,1.57 -3.385,1.953 -3.175,0.594 -6.558,1.326 -6.558,5.758 0,4.012 3.523,5.931 7.571,5.931 C -3.141,4.815 -0.873,3.036 0,0" /></g><path
         inkscape:connector-curvature="0"
         id="path68"
         style="fill:#009edf;fill-opacity:0.97512436;fill-rule:nonzero;stroke:none"
         d="m 471.931,186.559 h -5.269 v 18.18 h 5.269 z m -2.619,20.554 c -2.022,0 -3.174,1.186 -3.174,3.209 0,2.024 1.152,3.175 3.174,3.175 1.991,0 3.176,-1.151 3.176,-3.175 0,-2.023 -1.185,-3.209 -3.176,-3.209" /><g
         transform="translate(488.2607,195.7732)"
         id="g70"
         style="fill:#009edf;fill-opacity:0.97512436"><path
           inkscape:connector-curvature="0"
           id="path72"
           style="fill:#009edf;fill-opacity:0.97512436;fill-rule:nonzero;stroke:none"
           d="m 0,0 c 0,3.977 -1.081,5.371 -3.42,5.371 -2.371,0 -3.698,-1.499 -3.698,-5.442 0,-4.047 1.012,-5.654 3.594,-5.654 C -1.221,-5.725 0,-4.259 0,0 m -12.631,-0.212 c 0,5.828 3.036,9.562 9.352,9.562 6.315,0 8.758,-3.804 8.758,-9.176 0,-5.933 -2.722,-9.807 -9.248,-9.807 -6.594,0 -8.862,3.979 -8.862,9.421" /></g><g
         transform="translate(513.9443,186.5593)"
         id="g74"
         style="fill:#009edf;fill-opacity:0.97512436"><path
           inkscape:connector-curvature="0"
           id="path76"
           style="fill:#009edf;fill-opacity:0.97512436;fill-rule:nonzero;stroke:none"
           d="m 0,0 h -5.269 v 11.516 c 0,1.953 -0.767,2.791 -2.407,2.791 -1.431,0 -2.861,-0.802 -3.56,-1.43 V 0 h -5.268 v 18.18 h 4.674 l 0.28,-1.815 c 1.326,1.221 3.315,2.198 5.792,2.198 4.014,0 5.758,-1.988 5.758,-6.141 z" /></g><g
         transform="translate(534.8125,186.5593)"
         id="g78"
         style="fill:#009edf;fill-opacity:0.97512436"><path
           inkscape:connector-curvature="0"
           id="path80"
           style="fill:#009edf;fill-opacity:0.97512436;fill-rule:nonzero;stroke:none"
           d="m 0,0 h -5.269 v 11.516 c 0,1.953 -0.768,2.791 -2.408,2.791 -1.43,0 -2.861,-0.802 -3.559,-1.43 V 0 h -5.268 v 18.18 h 4.675 l 0.278,-1.815 c 1.327,1.221 3.316,2.198 5.794,2.198 4.012,0 5.757,-1.988 5.757,-6.141 z" /></g><g
         transform="translate(549.6436,197.6902)"
         id="g82"
         style="fill:#009edf;fill-opacity:0.97512436"><path
           inkscape:connector-curvature="0"
           id="path84"
           style="fill:#009edf;fill-opacity:0.97512436;fill-rule:nonzero;stroke:none"
           d="m 0,0 c 0,2.617 -0.941,3.629 -2.651,3.629 -1.501,0 -2.967,-0.976 -3,-3.629 z m -11.271,-2.093 c 0,6.56 4.013,9.526 8.899,9.526 5.513,0 7.816,-3.35 7.816,-8.41 0,-0.592 -0.036,-1.744 -0.104,-2.373 H -5.722 c 0.104,-3.001 1.362,-4.117 3.663,-4.117 1.885,0 2.618,1.046 2.966,2.582 L 5.34,-5.966 c -0.664,-3.386 -3.386,-5.584 -7.712,-5.584 -6.734,0 -8.899,4.537 -8.899,9.457" /></g><path
         inkscape:connector-curvature="0"
         id="path86"
         style="fill:#009edf;fill-opacity:0.97512436;fill-rule:nonzero;stroke:none"
         d="m 564.16,186.559 h -5.268 v 26.345 h 5.268 z" /><g
         transform="translate(275.3237,165.0271)"
         id="g88"
         style="fill:#009edf;fill-opacity:0.97512436"><path
           inkscape:connector-curvature="0"
           id="path90"
           style="fill:#009edf;fill-opacity:0.97512436;fill-rule:nonzero;stroke:none"
           d="m 0,0 c -0.698,0.523 -1.745,1.013 -2.931,1.013 -2.652,0 -3.664,-2.337 -3.664,-5.48 0,-3.245 1.012,-5.163 3.489,-5.163 1.117,0 2.269,0.524 3.106,1.291 z M 5.234,-13.364 H 0.837 l -0.314,1.779 -0.105,0.035 c -1.255,-1.395 -2.965,-2.233 -5.373,-2.233 -4.257,0 -7.153,2.617 -7.153,9.142 0,7.293 3.908,9.839 7.677,9.839 2.024,0 3.454,-0.453 4.606,-1.534 v 9.315 h 5.059 z" /></g><g
         transform="translate(295.5288,162.7946)"
         id="g92"
         style="fill:#009edf;fill-opacity:0.97512436"><path
           inkscape:connector-curvature="0"
           id="path94"
           style="fill:#009edf;fill-opacity:0.97512436;fill-rule:nonzero;stroke:none"
           d="m 0,0 c 0,2.616 -0.942,3.628 -2.652,3.628 -1.5,0 -2.966,-0.977 -3.001,-3.628 z m -11.271,-2.094 c 0,6.56 4.013,9.525 8.898,9.525 5.513,0 7.816,-3.35 7.816,-8.408 0,-0.593 -0.035,-1.745 -0.105,-2.374 H -5.723 c 0.105,-3 1.361,-4.117 3.664,-4.117 1.884,0 2.617,1.046 2.966,2.582 l 4.431,-1.082 c -0.663,-3.385 -3.384,-5.583 -7.711,-5.583 -6.734,0 -8.898,4.537 -8.898,9.457" /></g><g
         transform="translate(323.3765,152.5359)"
         id="g96"
         style="fill:#009edf;fill-opacity:0.97512436"><path
           inkscape:connector-curvature="0"
           id="path98"
           style="fill:#009edf;fill-opacity:0.97512436;fill-rule:nonzero;stroke:none"
           d="m 0,0 c -0.908,-0.593 -3.036,-1.292 -5.339,-1.292 -3.803,0 -5.792,1.745 -5.792,5.896 v 8.865 h -2.722 v 3.838 h 2.722 v 5.374 l 5.268,0.697 v -6.071 h 4.816 v -3.838 h -4.816 v -8.13 c 0,-1.606 0.455,-2.443 2.13,-2.443 1.045,0 2.302,0.417 3,0.837 z" /></g><g
         transform="translate(337.6841,165.0622)"
         id="g100"
         style="fill:#009edf;fill-opacity:0.97512436"><path
           inkscape:connector-curvature="0"
           id="path102"
           style="fill:#009edf;fill-opacity:0.97512436;fill-rule:nonzero;stroke:none"
           d="m 0,0 c -2.373,0.21 -4.71,-0.419 -6.246,-1.64 v -11.759 h -5.269 V 4.78 h 4.501 L -6.63,1.92 c 1.221,1.778 2.931,3.243 5.723,3.243 0.279,0 0.593,-0.034 0.907,-0.034 z" /></g><g
         transform="translate(349.5146,159.3737)"
         id="g104"
         style="fill:#009edf;fill-opacity:0.97512436"><path
           inkscape:connector-curvature="0"
           id="path106"
           style="fill:#009edf;fill-opacity:0.97512436;fill-rule:nonzero;stroke:none"
           d="m 0,0 h -0.838 c -2.512,-0.069 -4.327,-0.557 -4.327,-2.407 0,-1.046 0.454,-1.989 2.128,-1.989 1.257,0 2.478,0.628 3.037,1.187 z m 5.129,-3.175 c 0,-0.976 0.174,-1.395 1.081,-1.395 0.315,0 0.628,0.07 1.082,0.209 l 0.14,-3.035 c -0.698,-0.35 -2.233,-0.699 -3.35,-0.699 -2.094,0 -3.35,0.594 -3.733,2.304 -1.152,-1.501 -2.897,-2.339 -5.409,-2.339 -4.536,0 -5.408,3.036 -5.408,4.851 0,5.549 5.757,6.385 10.432,6.35 v 0.664 c 0,2.059 -0.278,3.314 -2.582,3.314 -1.744,0 -2.407,-0.733 -2.756,-2.512 L -9.84,5.409 c 0.558,3.42 2.721,5.443 7.676,5.443 4.851,0 7.293,-1.883 7.293,-6.419 z" /></g><g
         transform="translate(362.8809,151.6628)"
         id="g108"
         style="fill:#009edf;fill-opacity:0.97512436"><path
           inkscape:connector-curvature="0"
           id="path110"
           style="fill:#009edf;fill-opacity:0.97512436;fill-rule:nonzero;stroke:none"
           d="m 0,0 -6.421,18.18 h 5.688 L 3.14,5.06 h 0.139 l 3.874,13.12 h 5.408 L 6.141,0 Z" /></g><g
         transform="translate(386.4351,159.3737)"
         id="g112"
         style="fill:#009edf;fill-opacity:0.97512436"><path
           inkscape:connector-curvature="0"
           id="path114"
           style="fill:#009edf;fill-opacity:0.97512436;fill-rule:nonzero;stroke:none"
           d="m 0,0 h -0.838 c -2.512,-0.069 -4.327,-0.557 -4.327,-2.407 0,-1.046 0.454,-1.989 2.129,-1.989 1.256,0 2.477,0.628 3.036,1.187 z m 5.129,-3.175 c 0,-0.976 0.174,-1.395 1.081,-1.395 0.315,0 0.628,0.07 1.082,0.209 l 0.14,-3.035 c -0.698,-0.35 -2.233,-0.699 -3.35,-0.699 -2.094,0 -3.35,0.594 -3.733,2.304 -1.152,-1.501 -2.897,-2.339 -5.409,-2.339 -4.536,0 -5.409,3.036 -5.409,4.851 0,5.549 5.758,6.385 10.434,6.35 v 0.664 c 0,2.059 -0.279,3.314 -2.582,3.314 -1.745,0 -2.408,-0.733 -2.758,-2.512 l -4.466,0.872 c 0.558,3.42 2.722,5.443 7.677,5.443 4.85,0 7.293,-1.883 7.293,-6.419 z" /></g><path
         inkscape:connector-curvature="0"
         id="path116"
         style="fill:#009edf;fill-opacity:0.97512436;fill-rule:nonzero;stroke:none"
         d="m 402.139,151.663 h -5.269 v 18.18 h 5.269 z m -2.617,20.553 c -2.023,0 -3.175,1.185 -3.175,3.209 0,2.024 1.152,3.175 3.175,3.175 1.989,0 3.176,-1.151 3.176,-3.175 0,-2.024 -1.187,-3.209 -3.176,-3.209" /><path
         inkscape:connector-curvature="0"
         id="path118"
         style="fill:#009edf;fill-opacity:0.97512436;fill-rule:nonzero;stroke:none"
         d="m 412.014,151.663 h -5.269 v 26.344 h 5.269 z" /><path
         inkscape:connector-curvature="0"
         id="path120"
         style="fill:#009edf;fill-opacity:0.97512436;fill-rule:nonzero;stroke:none"
         d="m 421.89,151.663 h -5.269 v 26.344 h 5.269 z" /><g
         transform="translate(436.8604,162.7946)"
         id="g122"
         style="fill:#009edf;fill-opacity:0.97512436"><path
           inkscape:connector-curvature="0"
           id="path124"
           style="fill:#009edf;fill-opacity:0.97512436;fill-rule:nonzero;stroke:none"
           d="m 0,0 c 0,2.616 -0.942,3.628 -2.652,3.628 -1.5,0 -2.966,-0.977 -3.001,-3.628 z m -11.271,-2.094 c 0,6.56 4.012,9.525 8.898,9.525 5.513,0 7.816,-3.35 7.816,-8.408 0,-0.593 -0.035,-1.745 -0.105,-2.374 H -5.723 c 0.105,-3 1.361,-4.117 3.663,-4.117 1.885,0 2.618,1.046 2.966,2.582 l 4.432,-1.082 c -0.662,-3.385 -3.384,-5.583 -7.711,-5.583 -6.734,0 -8.898,4.537 -8.898,9.457" /></g><g
         transform="translate(445.9336,169.8425)"
         id="g126"
         style="fill:#009edf;fill-opacity:0.97512436"><path
           inkscape:connector-curvature="0"
           id="path128"
           style="fill:#009edf;fill-opacity:0.97512436;fill-rule:nonzero;stroke:none"
           d="m 0,0 h 5.27 v -11.479 c 0,-1.955 0.627,-2.828 2.303,-2.828 1.36,0 2.756,0.804 3.453,1.431 V 0 h 5.269 V -18.18 H 11.76 l -0.384,1.954 C 10.085,-17.691 8.061,-18.563 5.583,-18.563 1.85,-18.563 0,-16.539 0,-12.527 Z" /></g><g
         transform="translate(480.9336,165.4109)"
         id="g130"
         style="fill:#009edf;fill-opacity:0.97512436"><path
           inkscape:connector-curvature="0"
           id="path132"
           style="fill:#009edf;fill-opacity:0.97512436;fill-rule:nonzero;stroke:none"
           d="m 0,0 -4.327,-1.36 c -0.453,1.535 -1.222,2.477 -3.14,2.477 -1.502,0 -2.304,-0.558 -2.304,-1.604 0,-1.327 1.537,-1.607 3.699,-1.99 3.176,-0.558 6.384,-1.256 6.384,-5.548 0,-4.152 -3.523,-6.142 -7.99,-6.142 -4.675,0 -7.117,1.99 -7.745,4.991 l 4.291,1.396 c 0.419,-1.396 1.153,-2.757 3.629,-2.757 1.78,0 2.618,0.593 2.618,1.71 0,1.36 -1.257,1.569 -3.385,1.953 -3.175,0.594 -6.56,1.327 -6.56,5.758 0,4.012 3.524,5.93 7.571,5.93 C -3.141,4.814 -0.873,3.036 0,0" /></g><g
         transform="translate(495.1709,162.7946)"
         id="g134"
         style="fill:#009edf;fill-opacity:0.97512436"><path
           inkscape:connector-curvature="0"
           id="path136"
           style="fill:#009edf;fill-opacity:0.97512436;fill-rule:nonzero;stroke:none"
           d="m 0,0 c 0,2.616 -0.942,3.628 -2.651,3.628 -1.5,0 -2.966,-0.977 -3.001,-3.628 z m -11.271,-2.094 c 0,6.56 4.014,9.525 8.9,9.525 5.513,0 7.815,-3.35 7.815,-8.408 0,-0.593 -0.036,-1.745 -0.105,-2.374 H -5.722 c 0.105,-3 1.361,-4.117 3.663,-4.117 1.884,0 2.618,1.046 2.967,2.582 l 4.431,-1.082 c -0.662,-3.385 -3.384,-5.583 -7.71,-5.583 -6.736,0 -8.9,4.537 -8.9,9.457" /></g><g
         transform="translate(518.4131,165.4109)"
         id="g138"
         style="fill:#009edf;fill-opacity:0.97512436"><path
           inkscape:connector-curvature="0"
           id="path140"
           style="fill:#009edf;fill-opacity:0.97512436;fill-rule:nonzero;stroke:none"
           d="m 0,0 -4.328,-1.36 c -0.453,1.535 -1.221,2.477 -3.14,2.477 -1.501,0 -2.303,-0.558 -2.303,-1.604 0,-1.327 1.536,-1.607 3.699,-1.99 3.175,-0.558 6.385,-1.256 6.385,-5.548 0,-4.152 -3.524,-6.142 -7.991,-6.142 -4.675,0 -7.117,1.99 -7.746,4.991 l 4.292,1.396 c 0.419,-1.396 1.153,-2.757 3.629,-2.757 1.778,0 2.617,0.593 2.617,1.71 0,1.36 -1.256,1.569 -3.385,1.953 -3.174,0.594 -6.56,1.327 -6.56,5.758 0,4.012 3.524,5.93 7.572,5.93 C -3.142,4.814 -0.873,3.036 0,0" /></g><g
         transform="translate(539.2451,162.7946)"
         id="g142"
         style="fill:#009edf;fill-opacity:0.97512436"><path
           inkscape:connector-curvature="0"
           id="path144"
           style="fill:#009edf;fill-opacity:0.97512436;fill-rule:nonzero;stroke:none"
           d="M 0,0 C 0,2.616 -0.941,3.628 -2.65,3.628 -4.151,3.628 -5.617,2.651 -5.651,0 Z m -11.271,-2.094 c 0,6.56 4.014,9.525 8.899,9.525 5.513,0 7.816,-3.35 7.816,-8.408 0,-0.593 -0.035,-1.745 -0.104,-2.374 H -5.722 c 0.105,-3 1.362,-4.117 3.664,-4.117 1.884,0 2.618,1.046 2.966,2.582 L 5.34,-5.968 c -0.663,-3.385 -3.386,-5.583 -7.712,-5.583 -6.734,0 -8.899,4.537 -8.899,9.457" /></g><g
         transform="translate(560.1494,152.5359)"
         id="g146"
         style="fill:#009edf;fill-opacity:0.97512436"><path
           inkscape:connector-curvature="0"
           id="path148"
           style="fill:#009edf;fill-opacity:0.97512436;fill-rule:nonzero;stroke:none"
           d="m 0,0 c -0.907,-0.593 -3.035,-1.292 -5.339,-1.292 -3.803,0 -5.792,1.745 -5.792,5.896 v 8.865 h -2.722 v 3.838 h 2.722 v 5.374 l 5.269,0.697 v -6.071 h 4.815 v -3.838 h -4.815 v -8.13 c 0,-1.606 0.453,-2.443 2.13,-2.443 1.045,0 2.301,0.417 3,0.837 z" /></g><g
         transform="translate(276.022,117.6394)"
         id="g150"
         style="fill:#009edf;fill-opacity:0.97512436"><path
           inkscape:connector-curvature="0"
           id="path152"
           style="fill:#009edf;fill-opacity:0.97512436;fill-rule:nonzero;stroke:none"
           d="m 0,0 c -0.908,-0.594 -3.036,-1.292 -5.339,-1.292 -3.803,0 -5.792,1.745 -5.792,5.897 v 8.864 h -2.722 v 3.837 h 2.722 v 5.375 l 5.269,0.697 v -6.072 h 4.815 v -3.837 h -4.815 v -8.13 c 0,-1.607 0.454,-2.443 2.129,-2.443 1.045,0 2.302,0.418 3,0.836 z" /></g><g
         transform="translate(290.3286,130.1657)"
         id="g154"
         style="fill:#009edf;fill-opacity:0.97512436"><path
           inkscape:connector-curvature="0"
           id="path156"
           style="fill:#009edf;fill-opacity:0.97512436;fill-rule:nonzero;stroke:none"
           d="m 0,0 c -2.373,0.209 -4.71,-0.419 -6.246,-1.64 v -11.759 h -5.269 V 4.779 h 4.501 l 0.384,-2.86 c 1.221,1.779 2.931,3.245 5.723,3.245 0.279,0 0.593,-0.035 0.907,-0.035 z" /></g><g
         transform="translate(302.1592,124.4773)"
         id="g158"
         style="fill:#009edf;fill-opacity:0.97512436"><path
           inkscape:connector-curvature="0"
           id="path160"
           style="fill:#009edf;fill-opacity:0.97512436;fill-rule:nonzero;stroke:none"
           d="m 0,0 h -0.837 c -2.513,-0.068 -4.327,-0.558 -4.327,-2.407 0,-1.047 0.454,-1.989 2.128,-1.989 1.257,0 2.477,0.628 3.036,1.186 z m 5.129,-3.175 c 0,-0.976 0.175,-1.395 1.082,-1.395 0.314,0 0.628,0.07 1.081,0.21 l 0.14,-3.036 C 6.734,-7.745 5.199,-8.095 4.083,-8.095 c -2.095,0 -3.351,0.594 -3.734,2.304 -1.152,-1.501 -2.896,-2.339 -5.409,-2.339 -4.535,0 -5.408,3.036 -5.408,4.851 0,5.549 5.758,6.385 10.433,6.35 v 0.664 c 0,2.059 -0.279,3.313 -2.582,3.313 -1.744,0 -2.407,-0.732 -2.757,-2.511 l -4.465,0.872 c 0.558,3.42 2.721,5.444 7.675,5.444 4.851,0 7.293,-1.884 7.293,-6.421 z" /></g><g
         transform="translate(315.5254,116.7663)"
         id="g162"
         style="fill:#009edf;fill-opacity:0.97512436"><path
           inkscape:connector-curvature="0"
           id="path164"
           style="fill:#009edf;fill-opacity:0.97512436;fill-rule:nonzero;stroke:none"
           d="m 0,0 -6.421,18.179 h 5.688 L 3.14,5.061 h 0.139 l 3.874,13.118 h 5.408 L 6.141,0 Z" /></g><g
         transform="translate(339.0796,124.4773)"
         id="g166"
         style="fill:#009edf;fill-opacity:0.97512436"><path
           inkscape:connector-curvature="0"
           id="path168"
           style="fill:#009edf;fill-opacity:0.97512436;fill-rule:nonzero;stroke:none"
           d="m 0,0 h -0.837 c -2.513,-0.068 -4.328,-0.558 -4.328,-2.407 0,-1.047 0.455,-1.989 2.129,-1.989 1.257,0 2.477,0.628 3.036,1.186 z m 5.129,-3.175 c 0,-0.976 0.175,-1.395 1.082,-1.395 0.314,0 0.628,0.07 1.081,0.21 l 0.14,-3.036 C 6.734,-7.745 5.199,-8.095 4.083,-8.095 c -2.094,0 -3.35,0.594 -3.734,2.304 -1.152,-1.501 -2.896,-2.339 -5.409,-2.339 -4.536,0 -5.408,3.036 -5.408,4.851 0,5.549 5.758,6.385 10.433,6.35 v 0.664 c 0,2.059 -0.279,3.313 -2.582,3.313 -1.744,0 -2.407,-0.732 -2.756,-2.511 l -4.466,0.872 c 0.558,3.42 2.72,5.444 7.675,5.444 4.851,0 7.293,-1.884 7.293,-6.421 z" /></g><path
         inkscape:connector-curvature="0"
         id="path170"
         style="fill:#009edf;fill-opacity:0.97512436;fill-rule:nonzero;stroke:none"
         d="m 354.784,116.766 h -5.269 v 18.179 h 5.269 z m -2.617,20.553 c -2.024,0 -3.176,1.186 -3.176,3.21 0,2.024 1.152,3.175 3.176,3.175 1.989,0 3.175,-1.151 3.175,-3.175 0,-2.024 -1.186,-3.21 -3.175,-3.21" /><path
         inkscape:connector-curvature="0"
         id="path172"
         style="fill:#009edf;fill-opacity:0.97512436;fill-rule:nonzero;stroke:none"
         d="m 364.659,116.766 h -5.269 v 26.345 h 5.269 z" /><path
         inkscape:connector-curvature="0"
         id="path174"
         style="fill:#009edf;fill-opacity:0.97512436;fill-rule:nonzero;stroke:none"
         d="m 374.535,116.766 h -5.27 v 26.345 h 5.27 z" /><g
         transform="translate(389.5049,127.8972)"
         id="g176"
         style="fill:#009edf;fill-opacity:0.97512436"><path
           inkscape:connector-curvature="0"
           id="path178"
           style="fill:#009edf;fill-opacity:0.97512436;fill-rule:nonzero;stroke:none"
           d="m 0,0 c 0,2.616 -0.942,3.628 -2.652,3.628 -1.5,0 -2.966,-0.976 -3,-3.628 z m -11.271,-2.093 c 0,6.56 4.013,9.526 8.898,9.526 5.513,0 7.817,-3.35 7.817,-8.41 0,-0.592 -0.035,-1.744 -0.105,-2.373 H -5.722 c 0.104,-3.001 1.36,-4.117 3.663,-4.117 1.885,0 2.617,1.046 2.966,2.581 l 4.432,-1.081 c -0.663,-3.385 -3.385,-5.583 -7.712,-5.583 -6.734,0 -8.898,4.537 -8.898,9.457" /></g><g
         transform="translate(398.5781,134.945)"
         id="g180"
         style="fill:#009edf;fill-opacity:0.97512436"><path
           inkscape:connector-curvature="0"
           id="path182"
           style="fill:#009edf;fill-opacity:0.97512436;fill-rule:nonzero;stroke:none"
           d="m 0,0 h 5.27 v -11.479 c 0,-1.954 0.627,-2.827 2.303,-2.827 1.36,0 2.756,0.803 3.454,1.431 V 0 h 5.268 v -18.179 h -4.536 l -0.384,1.953 C 10.084,-17.69 8.061,-18.562 5.583,-18.562 1.85,-18.562 0,-16.539 0,-12.526 Z" /></g><g
         transform="translate(430.8564,130.1657)"
         id="g184"
         style="fill:#009edf;fill-opacity:0.97512436"><path
           inkscape:connector-curvature="0"
           id="path186"
           style="fill:#009edf;fill-opacity:0.97512436;fill-rule:nonzero;stroke:none"
           d="m 0,0 c -2.373,0.209 -4.71,-0.419 -6.246,-1.64 v -11.759 h -5.269 V 4.779 h 4.501 l 0.384,-2.86 c 1.221,1.779 2.931,3.245 5.724,3.245 0.278,0 0.593,-0.035 0.906,-0.035 z" /></g><g
         transform="translate(447.5723,130.5134)"
         id="g188"
         style="fill:#009edf;fill-opacity:0.97512436"><path
           inkscape:connector-curvature="0"
           id="path190"
           style="fill:#009edf;fill-opacity:0.97512436;fill-rule:nonzero;stroke:none"
           d="m 0,0 -4.327,-1.358 c -0.453,1.534 -1.221,2.475 -3.14,2.475 -1.501,0 -2.303,-0.557 -2.303,-1.604 0,-1.326 1.536,-1.606 3.699,-1.99 3.175,-0.558 6.384,-1.255 6.384,-5.547 0,-4.152 -3.524,-6.142 -7.99,-6.142 -4.676,0 -7.118,1.99 -7.746,4.99 l 4.292,1.396 c 0.419,-1.396 1.152,-2.756 3.628,-2.756 1.78,0 2.618,0.594 2.618,1.71 0,1.36 -1.257,1.569 -3.385,1.953 -3.175,0.594 -6.56,1.326 -6.56,5.757 0,4.012 3.524,5.932 7.572,5.932 C -3.141,4.816 -0.873,3.037 0,0" /></g><g
         id="g359"
         style="fill:#009edf;fill-opacity:0.97647059"><g
           id="g192"
           transform="translate(297.9854,268.947)"
           style="fill:#009edf;fill-opacity:0.97647059"><path
             d="m 0,0 -9.43,-2.188 c -0.452,3.32 -2.112,5.885 -6.261,5.885 -3.924,0 -5.507,-1.509 -5.507,-3.622 0,-3.092 3.923,-3.695 8.222,-4.752 5.357,-1.283 11.316,-3.244 11.316,-11.165 0,-9.129 -7.846,-13.729 -18.256,-13.729 -10.864,0 -15.541,4.828 -16.145,11.315 l 9.657,2.565 c 0.452,-3.018 1.811,-6.186 7.318,-6.186 3.621,0 6.261,1.132 6.261,3.999 0,3.243 -4.073,3.847 -8.525,5.054 -5.205,1.357 -10.863,3.47 -10.863,11.24 0,9.128 8.374,12.976 17.049,12.976 C -5.959,11.392 -0.981,7.016 0,0"
             style="fill:#009edf;fill-opacity:0.97647059;fill-rule:nonzero;stroke:none"
             id="path194"
             inkscape:connector-curvature="0" /></g><g
           id="g196"
           transform="translate(301.6055,279.5847)"
           style="fill:#009edf;fill-opacity:0.97647059"><path
             d="m 0,0 h 11.844 l 4.375,-27.838 h 0.152 L 27.837,0 H 39.908 L 19.313,-42.021 c -4.98,-10.184 -8.525,-14.106 -17.125,-14.106 -3.018,0 -6.563,0.829 -8.147,1.658 l 1.886,7.847 c 1.961,-0.679 3.846,-1.132 5.506,-1.132 3.546,0 4.904,2.264 7.544,7.695 z"
             style="fill:#009edf;fill-opacity:0.97647059;fill-rule:nonzero;stroke:none"
             id="path198"
             inkscape:connector-curvature="0" /></g><path
           inkscape:connector-curvature="0"
           id="path202"
           style="fill:#009edf;fill-opacity:0.97647059;fill-rule:nonzero;stroke:none"
           d="m 351.9224,240.28 h -11.392 l 5.507,39.305 h 10.637 l -0.679,-5.13 c 0.076,0 0.076,-0.076 0.076,-0.076 2.942,2.867 7.393,5.96 13.881,5.96 6.488,0 10.26,-3.244 10.26,-10.034 0,-1.056 -0.076,-2.112 -0.227,-3.244 l -3.771,-26.781 h -11.392 l 3.546,24.971 c 0.075,0.679 0.15,1.207 0.15,1.735 0,3.093 -1.508,4.149 -3.922,4.149 -3.395,0 -7.016,-2.338 -8.902,-3.922 z" /><g
           id="g204"
           transform="translate(413.6313,269.3249)"
           style="fill:#009edf;fill-opacity:0.97647059"><path
             d="m 0,0 c -1.283,1.132 -3.471,2.339 -5.96,2.339 -7.393,0 -9.807,-8.677 -9.807,-15.919 0,-3.395 1.357,-7.393 5.884,-7.393 2.565,0 5.13,0.981 7.318,2.791 z m -2.263,-29.045 v 4.149 c 0,0 -0.076,0.076 -0.152,0.076 -3.092,-3.018 -7.317,-5.129 -12.221,-5.129 -7.921,0 -13.126,4.6 -13.126,15.238 0,18.936 10.411,25.725 19.237,25.725 4.677,0 7.695,-1.66 10.033,-3.848 L 4.375,27.913 H 15.314 L 7.318,-29.045 Z"
             style="fill:#009edf;fill-opacity:0.97647059;fill-rule:nonzero;stroke:none"
             id="path206"
             inkscape:connector-curvature="0" /></g><g
           id="g208"
           transform="translate(441.9951,284.865)"
           style="fill:#009edf;fill-opacity:0.97647059"><path
             d="m 0,0 c -3.849,0 -6.035,2.113 -6.035,5.658 0,4.904 3.016,7.771 7.846,7.771 3.922,0 6.034,-1.962 6.034,-5.583 C 7.845,2.942 4.903,0 0,0 M -0.604,-44.585 H -11.995 L -6.488,-5.28 H 4.903 Z"
             style="fill:#009edf;fill-opacity:0.97647059;fill-rule:nonzero;stroke:none"
             id="path210"
             inkscape:connector-curvature="0" /></g><g
           id="g212"
           transform="translate(451.2725,256.1989)"
           style="fill:#009edf;fill-opacity:0.97647059"><path
             d="m 0,0 c 0,15.162 8.601,24.14 22.104,24.14 10.335,0 15.691,-6.489 15.088,-15.994 L 27.233,7.468 c 0.227,4.678 -0.904,8.222 -5.883,8.222 -4.678,0 -9.431,-3.319 -9.431,-15.314 0,-6.11 2.565,-8.524 6.488,-8.524 4.3,0 6.865,2.792 7.997,6.94 l 9.43,-1.509 C 33.495,-12.6 26.254,-16.823 17.201,-16.823 5.508,-16.823 0,-9.732 0,0"
             style="fill:#009edf;fill-opacity:0.97647059;fill-rule:nonzero;stroke:none"
             id="path214"
             inkscape:connector-curvature="0" /></g><g
           id="g216"
           transform="translate(519.998,269.1736)"
           style="fill:#009edf;fill-opacity:0.97647059"><path
             d="m 0,0 c -1.433,1.358 -3.772,2.413 -6.187,2.413 -7.316,0 -9.505,-9.278 -9.505,-15.539 0,-5.281 2.038,-7.922 5.885,-7.922 2.264,0 4.601,0.755 7.318,3.169 z m 8.6,-19.539 c -0.301,-2.036 0,-2.941 1.886,-2.941 0.679,0 1.358,0.075 2.414,0.376 l -0.678,-6.186 c -1.434,-0.679 -4.753,-1.357 -7.017,-1.357 -4.451,0 -6.865,1.584 -7.393,5.355 -2.867,-3.318 -7.318,-5.506 -12.296,-5.506 -7.846,0 -13.202,4.527 -13.202,15.314 0,16.521 8.901,25.649 19.086,25.649 4.677,0 7.92,-1.735 10.184,-3.923 l 0.604,3.169 h 10.636 z"
             style="fill:#009edf;fill-opacity:0.97647059;fill-rule:nonzero;stroke:none"
             id="path218"
             inkscape:connector-curvature="0" /></g><g
           id="g220"
           transform="translate(563.9033,242.0905)"
           style="fill:#009edf;fill-opacity:0.97647059"><path
             d="m 0,0 c -2.188,-1.282 -6.79,-2.715 -11.165,-2.715 -8.752,0 -12.826,4.374 -11.543,13.201 l 2.717,18.936 h -5.885 l 1.056,8.072 h 5.884 l 1.661,11.316 11.617,1.735 -1.887,-13.051 H 2.866 L 1.811,29.422 H -8.601 l -2.564,-17.879 c -0.528,-3.471 0.15,-5.733 3.771,-5.733 2.338,0 4.452,0.753 6.187,1.659 z"
             style="fill:#009edf;fill-opacity:0.97647059;fill-rule:nonzero;stroke:none"
             id="path222"
             inkscape:connector-curvature="0" /></g></g><g
         transform="translate(523.1621,370.4734)"
         id="g224"><path
           inkscape:connector-curvature="0"
           id="path226"
           style="fill:#ed1c24;fill-opacity:1;fill-rule:nonzero;stroke:none"
           d="m 0,0 v 30.072 h -21.18 v 21.003 h -20.118 c 6.086,9.103 11.837,20.171 8.612,29.591 -0.899,2.627 -1.502,5.723 -2.084,8.716 -1.353,6.958 -3.48,17.901 -12.7,19.782 -1.436,2.929 -3.783,6.667 -7.373,9.695 -4.107,3.465 -9.591,4.256 -14.668,2.115 -2.496,-1.052 -4.655,-2.706 -6.326,-4.751 -0.716,0.093 -1.465,0.12 -2.241,0.065 -7.533,-0.545 -12.81,-4.084 -15.069,-9.802 l -16.16,16.16 -20.847,-20.846 c -5.156,1.792 -10.689,2.739 -16.458,2.739 -14.501,0 -27.901,-4.753 -37.733,-13.383 -10.38,-9.109 -16.094,-21.998 -16.094,-36.293 0,-7.462 1.272,-14.014 3.712,-19.636 l -46.48,-46.48 49.334,-49.335 18.736,18.739 c 8.473,-5.318 18.279,-8.175 28.525,-8.175 14.379,0 27.899,5.598 38.062,15.765 4.547,4.544 8.171,9.761 10.799,15.422 v -31.187 h 43.036 v 4.067 c 3.137,-2.54 7.128,-4.069 11.478,-4.069 L 0,-50.024 v 30.071 h -14.857 c -3.485,0 -6.323,2.836 -6.323,6.322 V 0 Z" /></g><g
         transform="translate(459.9619,408.6125)"
         id="g228"><path
           inkscape:connector-curvature="0"
           id="path230"
           style="fill:#ffffff;fill-opacity:1;fill-rule:nonzero;stroke:none"
           d="m 0,0 c 6.073,2.588 15.716,16.106 20.333,22.98 3.347,6.082 5.537,12.347 3.863,17.235 -3.788,11.065 -2.408,25.746 -13.073,24.208 0,0 -1.902,6.765 -7.154,11.195 -3.056,2.576 -7.003,2.021 -9.874,-0.219 -0.76,-0.899 -2.307,-3.111 -2.096,-6.047 0,0 5.745,-0.393 9.955,-2.681 0,0 1.663,0.348 5.977,-1.391 0.122,0.733 0.272,2.379 -0.412,3.922 0,0 1.508,-1.701 1.676,-4.381 l 1.218,-0.428 c 0,0 -1.642,-0.014 -3.4,0.507 -1.168,0.345 -3.916,0.625 -4.903,0.582 -0.224,-0.014 -0.548,0.084 -1.002,0.252 -1.559,0.505 -8.231,2.629 -10.795,2.747 v 0 c -0.003,0.007 -1.751,3.192 -4.837,2.972 -2.379,-0.172 -7.122,-0.769 -9.143,-5.172 0.015,-2.335 1.102,-5.595 2.676,-9.021 2.286,-4.979 2.324,-11.133 2.469,-13.535 0.132,-2.188 0.848,-5.129 3.904,-8.214 2.916,-1.857 8.009,1.173 8.009,1.173 1.025,0.416 1.642,1.088 2.006,1.829 l -0.011,-10e-4 c 0,0 0.638,2.781 -1.663,8.583 -2.3,5.802 -4.45,6.645 -3.806,13.528 0,0 4.154,-11.06 24.182,-8.479 0,0 -0.038,-3.742 -5.285,-4.648 C 4.093,46.683 4.849,40.76 5.047,39.588 5.075,39.455 5.084,39.383 5.084,39.383 L 3.806,39.268 c -2.013,-0.263 -5.969,-1.116 -8.678,-3.862 -3.767,-3.821 -10.133,-6.03 -13.616,-9.293 -3.484,-3.263 -7.964,-2.701 -7.964,-2.701 0,0 -2.949,-3.604 -7.938,0.147 -1.967,1.479 -4.359,2.419 -6.337,2.164 -2.863,-0.92 -1.974,-8.098 2.373,-16.884 2.647,-5.346 6.79,-9.079 7.803,-13.228 l 0.926,-4.304 c -0.962,3.139 -3.401,6.04 -5.605,9.046 5.878,-11.31 7.65,-11.863 7.573,-38.395 h 0.024 V -81.245 H 1.565 v 43.487 H 1.558 C 0.931,-16.003 2.247,-3.801 2.247,-3.801 0.255,-3.015 -0.828,-2.29 -1.42,-1.716 -5.837,-1.194 -9.532,0.817 -9.532,0.817 -5.791,-0.295 -2.536,-0.338 0,0 M 2.664,50.314 C -0.945,49.385 -6.078,54.081 -6.078,54.081 -3.252,43.938 5.655,47.52 5.655,47.52 4.174,48.212 2.664,50.314 2.664,50.314 M -27.56,34.994 c 2.567,-6.776 5.695,-4.036 10.66,-1.786 0.002,0.016 0.004,0.022 0.004,0.036 -1.022,1.792 -3.712,6.832 -3.708,10.311 0.011,8.383 -2.63,15.928 -5.08,17.858 -2.391,0.268 -8.174,0.233 -10.583,-5.739 -0.381,-1.537 -0.717,-4.219 0.513,-6.941 1.886,-4.173 6.278,-8.683 8.194,-13.739 m -12.937,-2.813 c 0,0 5.035,-7.979 11.209,-3.825 -0.01,0.041 -0.016,0.066 -0.016,0.066 0.612,0.527 0.653,1.527 0.483,2.321 -0.06,0.194 -0.12,0.397 -0.186,0.609 -0.009,0.018 -0.015,0.034 -0.023,0.051 -0.05,0.11 -0.089,0.245 -0.121,0.394 -1.117,3.441 -3.331,8.938 -7.492,15.278 0,0 -0.591,3.428 -3.933,3.708 -1.799,-0.507 -4.018,-1.902 -5.807,-5.447 -0.39,-0.773 -0.678,-1.49 -0.907,-2.17 -0.141,-2.353 0.546,-7.119 6.793,-10.985 M 56.28,-31.22 v 16.234 H 35.102 V 6.016 H 17.037 C 16.923,5.859 16.808,5.699 16.695,5.544 15.319,3.647 11.6,-0.376 8.87,-3.009 8.87,-9.98 8.694,-18.48 8.619,-27.766 v -40.477 h 0.014 c 0.129,-7.201 5.997,-13.002 13.228,-13.002 0.041,0 0.083,0.006 0.126,0.006 v -0.006 H 56.28 v 16.234 h -7.937 c -7.314,0 -13.241,5.928 -13.241,13.241 v 20.55 z m -135.54,29.951 -4.15,0.036 c -2.024,0 -3.665,1.64 -3.665,3.664 v 10e-4 h -0.002 v 34.841 c 0,2.024 1.641,3.665 3.665,3.665 2.024,0 3.665,-1.641 3.665,-3.665 V 6.708 h 34.228 c -5.073,11.282 -6.45,21.401 -6.819,25.915 -1.92,3.028 -3.076,7.773 -0.662,13.857 -7.416,8.047 -17.844,12.999 -30.412,12.999 -25.905,0 -46.908,-16.848 -46.908,-42.755 0,-25.908 16.851,-36.527 42.758,-36.527 l 4.15,-0.039 c 2.024,0 3.665,-1.638 3.665,-3.664 v -27.016 c 0,-0.01 0.002,-0.018 0.002,-0.028 0,-2.023 -1.639,-3.665 -3.665,-3.665 -2.024,0 -3.665,1.642 -3.665,3.665 h -0.002 v 22.077 h -43.243 v -5.864 h 0.002 c 0,-12.953 5.25,-24.681 13.737,-33.168 8.49,-8.49 20.217,-13.74 33.169,-13.74 12.954,0 24.682,5.25 33.171,13.738 8.489,8.489 13.738,20.217 13.738,33.17 0,25.906 -16.851,33.068 -42.757,33.068" /></g><g
         transform="translate(461.6855,473.7624)"
         id="g232"><path
           inkscape:connector-curvature="0"
           id="path234"
           style="fill:#ed1c24;fill-opacity:1;fill-rule:nonzero;stroke:none"
           d="m 0,0 c -6.096,1.81 -10.649,2.842 -12.494,3.266 -1.179,0.27 -2.642,-1.824 -0.954,-4.384 1.685,-2.561 7.753,-5.162 13.325,-4.402 0,0 1.977,0.437 2.51,3.547 C 2.554,-0.992 0.64,-0.189 0,0" /></g></g></g></svg>